<svg xmlns="http://www.w3.org/2000/svg" fill="none" viewBox="0 0 174 22"><path d="m4.56 13.52 8.517-8.354a2.319 2.319 0 0 1 3.279.032L12.49 1.253a2.319 2.319 0 0 0-3.28-.032L.696 9.576a2.321 2.321 0 0 0-.032 3.28l3.866 3.946a2.321 2.321 0 0 1 .032-3.28" fill="#FCBA1E"/><path d="m7.808 16.834 8.516-8.355a2.321 2.321 0 0 0 .032-3.28l3.866 3.944a2.321 2.321 0 0 1-.032 3.28l-8.516 8.356a2.319 2.319 0 0 1-3.279-.032l-3.867-3.945a2.319 2.319 0 0 0 3.28.032" fill="#DF9026"/><path d="m20.221 9.142-3.866-3.945a2.32 2.32 0 0 1-.032 3.28l-.236.233 2.243 2.288a2.322 2.322 0 0 1-.032 3.28l1.89-1.854a2.321 2.321 0 0 0 .033-3.28" fill="#AD722A"/><path d="m10.597 3.11 2.244 2.288.236-.232a2.319 2.319 0 0 1 3.279.032L12.49 1.253a2.319 2.319 0 0 0-3.28-.033l-.236.232 1.622 1.657Z" fill="#FFC841"/><path d="M24.397 13.73V8.68c0-2.561 1.236-4.145 5.643-4.145s5.644 1.537 5.644 4.098v5.029c0 2.56-1.237 4.144-5.644 4.144s-5.643-1.513-5.643-4.074Zm9.128-.302v-4.54c0-1.956-.742-2.607-3.485-2.607-2.765 0-3.507.698-3.507 2.63v4.564c0 1.955.742 2.607 3.507 2.607 2.743 0 3.485-.698 3.485-2.654Zm3.822 2.468.922-.024V6.56l-.922-.07V4.814h5.981c3.103 0 4.272.768 4.272 2.56v1.514c0 1.42-.855 2.421-2.653 2.561 1.506.14 2.563.396 2.698 1.863l.225 2.537.989.047v1.653H45.98c-.112-.117-.202-.233-.225-.605l-.225-3.027c-.09-1.327-.989-1.676-3.17-1.676h-1.956v3.585l.922.023v1.677h-3.98v-1.63Zm5.554-5.332c2.023 0 2.585-.442 2.585-1.56V7.98c0-1.024-.382-1.467-2.585-1.467h-2.473v4.028H42.9v.023Zm7.194 3.167V8.679c0-2.561 1.237-4.145 5.644-4.145s5.643 1.537 5.643 4.098v5.029c0 2.56-1.236 4.144-5.643 4.144s-5.644-1.513-5.644-4.074Zm9.129-.303v-4.54c0-1.956-.742-2.607-3.485-2.607-2.766 0-3.508.698-3.508 2.63v4.564c0 1.955.742 2.607 3.508 2.607 2.743 0 3.485-.698 3.485-2.654Z" fill="#FFC221"/><path d="m68.061 16.11 1-.023V6.335l-1-.023V5.197h5.311c3.089 0 4.156.67 4.156 2.745v1.54c0 2.075-1.378 2.834-4.156 2.834h-2.844v3.771l1.022.023v1.115h-3.489V16.11Zm5.045-4.932c2.355 0 2.977-.58 2.977-1.875V8.076c0-1.295-.533-1.741-2.977-1.741h-2.578v4.843h2.578Zm5.259 3.727v-.803c0-1.674 1-2.21 3.422-2.79l3.133-.78V9.526c0-.848-.422-1.34-2.533-1.34-2.111 0-2.578.47-2.578 1.273 0 .178.089.692.089.692h-1s-.333-.335-.333-1.004c0-1.295.866-2.054 3.955-2.054s3.8.76 3.8 2.321v6.673l.955.022v1.05h-1.933c-.155 0-.267-.112-.267-.29l-.088-1.094h-.023c-.088.624-.689 1.651-3.11 1.651-2.334.045-3.49-.937-3.49-2.522Zm6.555-.178v-3.192l-2.667.692c-1.644.447-2.488.759-2.488 1.875v.692c0 1.07.733 1.629 2.488 1.629 2.022-.023 2.667-.96 2.667-1.696Zm3.335 1.383 1-.022V8.5l-1-.022V7.362h2c.177 0 .266.112.288.29l.067 1.473h.022c.111-1.294 1-2.03 2.134-2.03.422 0 .688.089.844.156V8.59c-.156-.112-.511-.201-.956-.201-1.155 0-2.022.692-2.044 2.477v5.222l1.067.022v1.05h-3.445v-1.05h.023Zm31.661 0 1-.022V8.5l-1-.022V7.362h2c.178 0 .266.112.289.29l.066 1.473h.023c.111-1.294 1-2.03 2.133-2.03.422 0 .689.089.844.156V8.59c-.155-.112-.511-.201-.955-.201-1.156 0-2.022.692-2.045 2.477v5.222l1.067.022v1.05h-3.444v-1.05h.022Zm-24.193-1.005v-6.74h-1.467V7.318l1.467-.067V5.53l1.222-.334h.178v2.075h2.378v1.116h-2.378v6.606c0 .87.422 1.227 1.2 1.227.6 0 1-.2 1.244-.38l.09.983c-.245.223-.823.468-1.623.468-1.4 0-2.311-.558-2.311-2.187Zm13.249-6.245c.127.723.089.76.089 1.562v5.646l1.022.023v1.048h-3.444v-1.048l1.022-.023v-6.16c0-1.249-.6-1.718-2.289-1.718-1.688 0-2.755.58-2.755 2.254v5.647l1.022.022v1.049h-3.355v-1.05l.933-.021V8.503l-.933-.022V7.365h2c.155 0 .266.111.266.29l.045 1.183h.022c.289-1.183 1.155-1.741 3.2-1.741 1.955-.045 2.933.49 3.155 1.763Zm6.069-1.344c-3.149 0-4.168 1.268-4.168 3.215v3.284c0 2.173 1.042 3.238 4.261 3.238 2.802 0 3.913-1.042 3.913-2.4v-.16h-1.273v.069c0 .747-.649 1.449-2.617 1.449-2.223 0-2.941-.747-2.941-2.264v-.929h6.553c.162 0 .278-.113.278-.271v-2.038c0-2.106-.88-3.193-4.006-3.193Zm2.709 4.642h-5.511V10.73c0-1.29.648-2.219 2.848-2.219 2.2 0 2.687.793 2.687 2.22v1.426h-.024Zm10.835 3.952 1-.023V6.335l-1-.023V5.197h5.311c3.088 0 4.155.67 4.155 2.745v1.54c0 2.075-1.378 2.834-4.155 2.834h-2.845v3.771l1.023.023v1.115h-3.489V16.11Zm5.044-4.932c2.356 0 2.978-.58 2.978-1.875V8.076c0-1.295-.534-1.741-2.978-1.741h-2.578v4.843h2.578Zm36.602 4.936.956-.022v-10.6l-1.089-.023V4.353h2.2c.155 0 .266.134.266.313v11.448l.956.022v1.05h-3.311v-1.072h.022Zm-9.833-1.209v-.803c0-1.674 1-2.21 3.422-2.79l3.134-.78V9.526c0-.848-.423-1.34-2.534-1.34-2.111 0-2.577.47-2.577 1.273 0 .178.089.692.089.692h-1s-.334-.335-.334-1.004c0-1.295.867-2.054 3.956-2.054 3.088 0 3.8.76 3.8 2.321v6.673l.955.022v1.05h-1.933c-.156 0-.267-.112-.267-.29l-.089-1.094h-.022c-.089.624-.689 1.651-3.111 1.651-2.333.045-3.489-.937-3.489-2.522Zm6.556-.178v-3.192l-2.667.692c-1.644.447-2.489.759-2.489 1.875v.692c0 1.07.734 1.629 2.489 1.629 2.022-.023 2.667-.96 2.667-1.696Zm-11.265.378v-6.74h-1.467V7.318l1.467-.067V5.53l1.222-.334h.178v2.075h2.377v1.116h-2.377v6.606c0 .87.422 1.227 1.2 1.227.6 0 1-.2 1.244-.38l.089.983c-.245.223-.822.468-1.622.468-1.4 0-2.311-.558-2.311-2.187Zm-17.071-1.115v-3.48c0-2.053 1.045-3.415 4.4-3.415 3.333 0 4.378 1.116 4.378 3.415v3.481c0 2.053-1.045 3.437-4.378 3.437-3.377 0-4.4-1.116-4.4-3.437Zm7.356-.111v-3.236c0-1.652-.645-2.41-2.978-2.41-2.311 0-3 .981-3 2.41v3.236c0 1.629.689 2.41 3 2.41 2.333 0 2.978-1.004 2.978-2.41Zm2.155 2.231 1-.022V8.5l-1-.022V7.362h2c.178 0 .267.112.289.29l.067 1.473h.022c.111-1.294 1-2.03 2.133-2.03.422 0 .689.089.845.156V8.59c-.156-.112-.511-.201-.956-.201-1.155 0-2.022.692-2.044 2.477v5.222l1.066.022v1.05h-3.444v-1.05h.022Z" fill="#9DA4A7"/></svg>