<svg xmlns="http://www.w3.org/2000/svg" fill="none" viewBox="0 0 461 460"><path d="M143 229.937h87.654v87.654H143z" fill="#F7F9F9" opacity=".5"/><path d="M170.021 124.752h165.491v165.491H170.021z" stroke="#F7F9F9"/><g opacity=".2"><circle fill="#F7F9F9" cx="3" cy="352.252" r="2.25"/><circle fill="#F7F9F9" cx="265.5" cy="352.252" r="2.25"/><circle fill="#F7F9F9" cx="55.5" cy="352.252" r="2.25"/><circle fill="#F7F9F9" cx="318" cy="352.252" r="2.25"/><circle fill="#fff" cx="108" cy="352.252" r="2.25"/><circle fill="#F7F9F9" cx="370.5" cy="352.252" r="2.25"/><circle fill="#F7F9F9" cx="160.5" cy="352.252" r="2.25"/><circle fill="#F7F9F9" cx="423" cy="352.252" r="2.25"/><circle fill="#F7F9F9" cx="213" cy="352.252" r="2.25"/><circle fill="#F7F9F9" cx="20.5" cy="352.252" r="2.25"/><circle fill="#F7F9F9" cx="283" cy="352.252" r="2.25"/><circle fill="#F7F9F9" cx="73" cy="352.252" r="2.25"/><circle fill="#F7F9F9" cx="335.5" cy="352.252" r="2.25"/><circle fill="#F7F9F9" cx="388" cy="352.252" r="2.25"/><circle fill="#F7F9F9" cx="178" cy="352.252" r="2.25"/><circle fill="#F7F9F9" cx="440.5" cy="352.252" r="2.25"/><circle fill="#F7F9F9" cx="230.5" cy="352.252" r="2.25"/><circle fill="#F7F9F9" cx="38" cy="352.252" r="2.25"/><circle fill="#F7F9F9" cx="300.5" cy="352.252" r="2.25"/><circle fill="#F7F9F9" cx="90.5" cy="352.252" r="2.25"/><circle fill="#F7F9F9" cx="353" cy="352.252" r="2.25"/><circle fill="#F7F9F9" cx="143" cy="352.252" r="2.25"/><circle fill="#F7F9F9" cx="405.5" cy="352.252" r="2.25"/><circle fill="#F7F9F9" cx="195.5" cy="352.252" r="2.25"/><circle fill="#F7F9F9" cx="458" cy="352.252" r="2.25"/><circle fill="#F7F9F9" cx="248" cy="352.252" r="2.25"/><circle fill="#F7F9F9" cx="3" cy="334.752" r="2.25"/><circle fill="#F7F9F9" cx="265.5" cy="334.752" r="2.25"/><circle fill="#F7F9F9" cx="55.5" cy="334.752" r="2.25"/><circle fill="#F7F9F9" cx="318" cy="334.752" r="2.25"/><circle fill="#F7F9F9" cx="108" cy="334.752" r="2.25"/><circle fill="#F7F9F9" cx="370.5" cy="334.752" r="2.25"/><circle fill="#F7F9F9" cx="160.5" cy="334.752" r="2.25"/><circle fill="#F7F9F9" cx="423" cy="334.752" r="2.25"/><circle fill="#F7F9F9" cx="213" cy="334.752" r="2.25"/><circle fill="#F7F9F9" cx="20.5" cy="334.752" r="2.25"/><circle fill="#F7F9F9" cx="283" cy="334.752" r="2.25"/><circle fill="#F7F9F9" cx="73" cy="334.752" r="2.25"/><circle fill="#F7F9F9" cx="335.5" cy="334.752" r="2.25"/><circle fill="#fff" cx="125.5" cy="334.752" r="2.25"/><circle fill="#F7F9F9" cx="388" cy="334.752" r="2.25"/><circle fill="#F7F9F9" cx="178" cy="334.752" r="2.25"/><circle fill="#F7F9F9" cx="440.5" cy="334.752" r="2.25"/><circle fill="#F7F9F9" cx="230.5" cy="334.752" r="2.25"/><circle fill="#F7F9F9" cx="38" cy="334.752" r="2.25"/><circle fill="#F7F9F9" cx="300.5" cy="334.752" r="2.25"/><circle fill="#F7F9F9" cx="90.5" cy="334.752" r="2.25"/><circle fill="#F7F9F9" cx="353" cy="334.752" r="2.25"/><circle fill="#F7F9F9" cx="405.5" cy="334.752" r="2.25"/><circle fill="#F7F9F9" cx="195.5" cy="334.752" r="2.25"/><circle fill="#F7F9F9" cx="458" cy="334.752" r="2.25"/><circle fill="#F7F9F9" cx="248" cy="334.752" r="2.25"/><circle fill="#F7F9F9" cx="3" cy="317.252" r="2.25"/><circle fill="#F7F9F9" cx="265.5" cy="317.252" r="2.25"/><circle fill="#F7F9F9" cx="55.5" cy="317.252" r="2.25"/><circle fill="#F7F9F9" cx="318" cy="317.252" r="2.25"/><circle fill="#F7F9F9" cx="108" cy="317.252" r="2.25"/><circle fill="#F7F9F9" cx="370.5" cy="317.252" r="2.25"/><circle fill="#F7F9F9" cx="423" cy="317.252" r="2.25"/><circle fill="#F7F9F9" cx="213" cy="317.252" r="2.25"/><circle fill="#F7F9F9" cx="20.5" cy="317.252" r="2.25"/><circle fill="#F7F9F9" cx="283" cy="317.252" r="2.25"/><circle fill="#F7F9F9" cx="73" cy="317.252" r="2.25"/><circle fill="#F7F9F9" cx="335.5" cy="317.252" r="2.25"/><circle fill="#F7F9F9" cx="125.5" cy="317.252" r="2.25"/><circle fill="#F7F9F9" cx="388" cy="317.252" r="2.25"/><circle fill="#F7F9F9" cx="178" cy="317.252" r="2.25"/><circle fill="#F7F9F9" cx="440.5" cy="317.252" r="2.25"/><circle fill="#F7F9F9" cx="230.5" cy="317.252" r="2.25"/><circle fill="#F7F9F9" cx="38" cy="317.252" r="2.25"/><circle fill="#F7F9F9" cx="300.5" cy="317.252" r="2.25"/><circle fill="#F7F9F9" cx="90.5" cy="317.252" r="2.25"/><circle fill="#F7F9F9" cx="353" cy="317.252" r="2.25"/><circle fill="#fff" cx="143" cy="317.252" r="2.25"/><circle fill="#F7F9F9" cx="405.5" cy="317.252" r="2.25"/><circle fill="#F7F9F9" cx="195.5" cy="317.252" r="2.25"/><circle fill="#F7F9F9" cx="458" cy="317.252" r="2.25"/><circle fill="#F7F9F9" cx="248" cy="317.252" r="2.25"/><circle fill="#F7F9F9" cx="3" cy="299.752" r="2.25"/><circle fill="#F7F9F9" cx="265.5" cy="299.752" r="2.25"/><circle fill="#F7F9F9" cx="55.5" cy="299.752" r="2.25"/><circle fill="#F7F9F9" cx="318" cy="299.752" r="2.25"/><circle fill="#F7F9F9" cx="108" cy="299.752" r="2.25"/><circle fill="#F7F9F9" cx="370.5" cy="299.752" r="2.25"/><circle fill="#F7F9F9" cx="423" cy="299.752" r="2.25"/><circle fill="#F7F9F9" cx="213" cy="299.752" r="2.25"/><circle fill="#F7F9F9" cx="20.5" cy="299.752" r="2.25"/><circle fill="#F7F9F9" cx="283" cy="299.752" r="2.25"/><circle fill="#F7F9F9" cx="73" cy="299.752" r="2.25"/><circle fill="#F7F9F9" cx="335.5" cy="299.752" r="2.25"/><circle fill="#F7F9F9" cx="125.5" cy="299.752" r="2.25"/><circle fill="#F7F9F9" cx="388" cy="299.752" r="2.25"/><circle fill="#F7F9F9" cx="440.5" cy="299.752" r="2.25"/><circle fill="#F7F9F9" cx="230.5" cy="299.752" r="2.25"/><circle fill="#F7F9F9" cx="38" cy="299.752" r="2.25"/><circle fill="#F7F9F9" cx="300.5" cy="299.752" r="2.25"/><circle fill="#F7F9F9" cx="90.5" cy="299.752" r="2.25"/><circle fill="#F7F9F9" cx="353" cy="299.752" r="2.25"/><circle fill="#F7F9F9" cx="143" cy="299.752" r="2.25"/><circle fill="#F7F9F9" cx="405.5" cy="299.752" r="2.25"/><circle fill="#F7F9F9" cx="195.5" cy="299.752" r="2.25"/><circle fill="#F7F9F9" cx="458" cy="299.752" r="2.25"/><circle fill="#F7F9F9" cx="248" cy="299.752" r="2.25"/><circle fill="#F7F9F9" cx="3" cy="282.252" r="2.25"/><circle fill="#F7F9F9" cx="265.5" cy="282.252" r="2.25"/><circle fill="#F7F9F9" cx="55.5" cy="282.252" r="2.25"/><circle fill="#F7F9F9" cx="318" cy="282.252" r="2.25"/><circle fill="#F7F9F9" cx="108" cy="282.252" r="2.25"/><circle fill="#F7F9F9" cx="370.5" cy="282.252" r="2.25"/><circle fill="#F7F9F9" cx="160.5" cy="282.252" r="2.25"/><circle fill="#F7F9F9" cx="423" cy="282.252" r="2.25"/><circle fill="#F7F9F9" cx="213" cy="282.252" r="2.25"/><circle fill="#F7F9F9" cx="20.5" cy="282.252" r="2.25"/><circle fill="#F7F9F9" cx="283" cy="282.252" r="2.25"/><circle fill="#F7F9F9" cx="73" cy="282.252" r="2.25"/><circle fill="#F7F9F9" cx="335.5" cy="282.252" r="2.25"/><circle fill="#F7F9F9" cx="125.5" cy="282.252" r="2.25"/><circle fill="#F7F9F9" cx="388" cy="282.252" r="2.25"/><circle fill="#F7F9F9" cx="440.5" cy="282.252" r="2.25"/><circle fill="#F7F9F9" cx="230.5" cy="282.252" r="2.25"/><circle fill="#F7F9F9" cx="38" cy="282.252" r="2.25"/><circle fill="#F7F9F9" cx="300.5" cy="282.252" r="2.25"/><circle fill="#F7F9F9" cx="90.5" cy="282.252" r="2.25"/><circle fill="#F7F9F9" cx="353" cy="282.252" r="2.25"/><circle fill="#F7F9F9" cx="143" cy="282.252" r="2.25"/><circle fill="#F7F9F9" cx="405.5" cy="282.252" r="2.25"/><circle fill="#F7F9F9" cx="458" cy="282.252" r="2.25"/><circle fill="#F7F9F9" cx="248" cy="282.252" r="2.25"/><circle fill="#F7F9F9" cx="3" cy="264.752" r="2.25"/><circle fill="#F7F9F9" cx="265.5" cy="264.752" r="2.25"/><circle fill="#F7F9F9" cx="55.5" cy="264.752" r="2.25"/><circle fill="#F7F9F9" cx="318" cy="264.752" r="2.25"/><circle fill="#F7F9F9" cx="108" cy="264.752" r="2.25"/><circle fill="#F7F9F9" cx="370.5" cy="264.752" r="2.25"/><circle fill="#F7F9F9" cx="160.5" cy="264.752" r="2.25"/><circle fill="#F7F9F9" cx="423" cy="264.752" r="2.25"/><circle fill="#F7F9F9" cx="20.5" cy="264.752" r="2.25"/><circle fill="#F7F9F9" cx="283" cy="264.752" r="2.25"/><circle fill="#F7F9F9" cx="73" cy="264.752" r="2.25"/><circle fill="#F7F9F9" cx="335.5" cy="264.752" r="2.25"/><circle fill="#F7F9F9" cx="125.5" cy="264.752" r="2.25"/><circle fill="#F7F9F9" cx="388" cy="264.752" r="2.25"/><circle fill="#F7F9F9" cx="178" cy="264.752" r="2.25"/><circle fill="#F7F9F9" cx="440.5" cy="264.752" r="2.25"/><circle fill="#F7F9F9" cx="230.5" cy="264.752" r="2.25"/><circle fill="#F7F9F9" cx="38" cy="264.752" r="2.25"/><circle fill="#F7F9F9" cx="300.5" cy="264.752" r="2.25"/><circle fill="#F7F9F9" cx="90.5" cy="264.752" r="2.25"/><circle fill="#F7F9F9" cx="353" cy="264.752" r="2.25"/><circle fill="#F7F9F9" cx="143" cy="264.752" r="2.25"/><circle fill="#F7F9F9" cx="405.5" cy="264.752" r="2.25"/><circle fill="#F7F9F9" cx="458" cy="264.752" r="2.25"/><circle fill="#F7F9F9" cx="248" cy="264.752" r="2.25"/><circle fill="#F7F9F9" cx="3" cy="247.252" r="2.25"/><circle fill="#F7F9F9" cx="265.5" cy="247.252" r="2.25"/><circle fill="#F7F9F9" cx="55.5" cy="247.252" r="2.25"/><circle fill="#F7F9F9" cx="318" cy="247.252" r="2.25"/><circle fill="#F7F9F9" cx="108" cy="247.252" r="2.25"/><circle fill="#F7F9F9" cx="370.5" cy="247.252" r="2.25"/><circle fill="#F7F9F9" cx="160.5" cy="247.252" r="2.25"/><circle fill="#F7F9F9" cx="423" cy="247.252" r="2.25"/><circle fill="#fff" cx="160.5" cy="299.752" r="2.25"/><circle fill="#fff" cx="178" cy="282.252" r="2.25"/><circle fill="#fff" cx="195.5" cy="264.752" r="2.25"/><circle fill="#fff" cx="213" cy="247.252" r="2.25"/><circle fill="#F7F9F9" cx="20.5" cy="247.252" r="2.25"/><circle fill="#F7F9F9" cx="283" cy="247.252" r="2.25"/><circle fill="#F7F9F9" cx="73" cy="247.252" r="2.25"/><circle fill="#F7F9F9" cx="335.5" cy="247.252" r="2.25"/><circle fill="#F7F9F9" cx="125.5" cy="247.252" r="2.25"/><circle fill="#F7F9F9" cx="388" cy="247.252" r="2.25"/><circle fill="#F7F9F9" cx="178" cy="247.252" r="2.25"/><circle fill="#F7F9F9" cx="440.5" cy="247.252" r="2.25"/><circle fill="#F7F9F9" cx="38" cy="247.252" r="2.25"/><circle fill="#F7F9F9" cx="300.5" cy="247.252" r="2.25"/><circle fill="#F7F9F9" cx="90.5" cy="247.252" r="2.25"/><circle fill="#F7F9F9" cx="353" cy="247.252" r="2.25"/><circle fill="#F7F9F9" cx="143" cy="247.252" r="2.25"/><circle fill="#F7F9F9" cx="405.5" cy="247.252" r="2.25"/><circle fill="#F7F9F9" cx="195.5" cy="247.252" r="2.25"/><circle fill="#F7F9F9" cx="458" cy="247.252" r="2.25"/><circle fill="#F7F9F9" cx="248" cy="247.252" r="2.25"/><circle fill="#F7F9F9" cx="3" cy="229.752" r="2.25"/><circle fill="#F7F9F9" cx="265.5" cy="229.752" r="2.25"/><circle fill="#F7F9F9" cx="55.5" cy="229.752" r="2.25"/><circle fill="#F7F9F9" cx="318" cy="229.752" r="2.25"/><circle fill="#F7F9F9" cx="108" cy="229.752" r="2.25"/><circle fill="#F7F9F9" cx="370.5" cy="229.752" r="2.25"/><circle fill="#F7F9F9" cx="160.5" cy="229.752" r="2.25"/><circle fill="#F7F9F9" cx="423" cy="229.752" r="2.25"/><circle fill="#F7F9F9" cx="213" cy="229.752" r="2.25"/><circle fill="#F7F9F9" cx="20.5" cy="229.752" r="2.25"/><circle fill="#F7F9F9" cx="283" cy="229.752" r="2.25"/><circle fill="#F7F9F9" cx="73" cy="229.752" r="2.25"/><circle fill="#F7F9F9" cx="335.5" cy="229.752" r="2.25"/><circle fill="#F7F9F9" cx="125.5" cy="229.752" r="2.25"/><circle fill="#F7F9F9" cx="388" cy="229.752" r="2.25"/><circle fill="#F7F9F9" cx="178" cy="229.752" r="2.25"/><circle fill="#F7F9F9" cx="440.5" cy="229.752" r="2.25"/><circle fill="#fff" cx="230.5" cy="229.752" r="2.25"/><circle fill="#F7F9F9" cx="38" cy="229.752" r="2.25"/><circle fill="#F7F9F9" cx="300.5" cy="229.752" r="2.25"/><circle fill="#F7F9F9" cx="90.5" cy="229.752" r="2.25"/><circle fill="#F7F9F9" cx="353" cy="229.752" r="2.25"/><circle fill="#F7F9F9" cx="143" cy="229.752" r="2.25"/><circle fill="#F7F9F9" cx="405.5" cy="229.752" r="2.25"/><circle fill="#F7F9F9" cx="195.5" cy="229.752" r="2.25"/><circle fill="#F7F9F9" cx="458" cy="229.752" r="2.25"/><circle fill="#F7F9F9" cx="3" cy="422.252" r="2.25"/><circle fill="#F7F9F9" cx="3" cy="72.25" r="2.25"/><circle fill="#F7F9F9" cx="265.5" cy="422.252" r="2.25"/><circle fill="#F7F9F9" cx="265.5" cy="72.25" r="2.25"/><circle fill="#F7F9F9" cx="55.5" cy="422.252" r="2.25"/><circle fill="#F7F9F9" cx="55.5" cy="72.25" r="2.25"/><circle fill="#F7F9F9" cx="318" cy="422.252" r="2.25"/><circle fill="#F7F9F9" cx="318" cy="72.25" r="2.25"/><circle fill="#F7F9F9" cx="108" cy="422.252" r="2.25"/><circle fill="#F7F9F9" cx="108" cy="72.25" r="2.25"/><circle fill="#F7F9F9" cx="370.5" cy="422.252" r="2.25"/><circle fill="#F7F9F9" cx="370.5" cy="72.25" r="2.25"/><circle fill="#F7F9F9" cx="160.5" cy="422.252" r="2.25"/><circle fill="#F7F9F9" cx="160.5" cy="72.25" r="2.25"/><circle fill="#F7F9F9" cx="423" cy="422.252" r="2.25"/><circle fill="#F7F9F9" cx="423" cy="72.25" r="2.25"/><circle fill="#F7F9F9" cx="213" cy="422.252" r="2.25"/><circle fill="#F7F9F9" cx="213" cy="72.25" r="2.25"/><circle fill="#F7F9F9" cx="20.5" cy="422.252" r="2.25"/><circle fill="#F7F9F9" cx="20.5" cy="72.25" r="2.25"/><circle fill="#F7F9F9" cx="283" cy="422.252" r="2.25"/><circle fill="#F7F9F9" cx="283" cy="72.25" r="2.25"/><circle fill="#F7F9F9" cx="73" cy="422.252" r="2.25"/><circle fill="#F7F9F9" cx="73" cy="72.25" r="2.25"/><circle fill="#F7F9F9" cx="335.5" cy="422.252" r="2.25"/><circle fill="#F7F9F9" cx="335.5" cy="72.25" r="2.25"/><circle fill="#F7F9F9" cx="125.5" cy="422.252" r="2.25"/><circle fill="#F7F9F9" cx="125.5" cy="72.25" r="2.25"/><circle fill="#F7F9F9" cx="388" cy="422.252" r="2.25"/><circle fill="#fff" cx="388" cy="72.25" r="2.25"/><circle fill="#F7F9F9" cx="178" cy="422.252" r="2.25"/><circle fill="#F7F9F9" cx="178" cy="72.25" r="2.25"/><circle fill="#F7F9F9" cx="440.5" cy="422.252" r="2.25"/><circle fill="#F7F9F9" cx="440.5" cy="72.25" r="2.25"/><circle fill="#F7F9F9" cx="230.5" cy="422.252" r="2.25"/><circle fill="#F7F9F9" cx="230.5" cy="72.25" r="2.25"/><circle fill="#F7F9F9" cx="38" cy="422.252" r="2.25"/><circle fill="#F7F9F9" cx="38" cy="72.25" r="2.25"/><circle fill="#F7F9F9" cx="300.5" cy="422.252" r="2.25"/><circle fill="#F7F9F9" cx="300.5" cy="72.25" r="2.25"/><circle fill="#F7F9F9" cx="90.5" cy="422.252" r="2.25"/><circle fill="#F7F9F9" cx="90.5" cy="72.25" r="2.25"/><circle fill="#F7F9F9" cx="353" cy="422.252" r="2.25"/><circle fill="#F7F9F9" cx="353" cy="72.25" r="2.25"/><circle fill="#F7F9F9" cx="143" cy="422.252" r="2.25"/><circle fill="#F7F9F9" cx="143" cy="72.25" r="2.25"/><circle fill="#F7F9F9" cx="405.5" cy="422.252" r="2.25"/><circle fill="#F7F9F9" cx="405.5" cy="72.25" r="2.25"/><circle fill="#F7F9F9" cx="195.5" cy="422.252" r="2.25"/><circle fill="#F7F9F9" cx="195.5" cy="72.25" r="2.25"/><circle fill="#F7F9F9" cx="458" cy="422.252" r="2.25"/><circle fill="#F7F9F9" cx="458" cy="72.25" r="2.25"/><circle fill="#F7F9F9" cx="248" cy="422.252" r="2.25"/><circle fill="#F7F9F9" cx="248" cy="72.25" r="2.25"/><circle fill="#F7F9F9" cx="3" cy="404.752" r="2.25"/><circle fill="#F7F9F9" cx="3" cy="54.75" r="2.25"/><circle fill="#F7F9F9" cx="265.5" cy="404.752" r="2.25"/><circle fill="#F7F9F9" cx="265.5" cy="54.75" r="2.25"/><circle fill="#F7F9F9" cx="55.5" cy="404.752" r="2.25"/><circle fill="#F7F9F9" cx="55.5" cy="54.75" r="2.25"/><circle fill="#F7F9F9" cx="318" cy="404.752" r="2.25"/><circle fill="#F7F9F9" cx="318" cy="54.75" r="2.25"/><circle fill="#F7F9F9" cx="108" cy="404.752" r="2.25"/><circle fill="#F7F9F9" cx="108" cy="54.75" r="2.25"/><circle fill="#F7F9F9" cx="370.5" cy="404.752" r="2.25"/><circle fill="#F7F9F9" cx="370.5" cy="54.75" r="2.25"/><circle fill="#F7F9F9" cx="160.5" cy="404.752" r="2.25"/><circle fill="#F7F9F9" cx="160.5" cy="54.75" r="2.25"/><circle fill="#F7F9F9" cx="423" cy="404.752" r="2.25"/><circle fill="#F7F9F9" cx="423" cy="54.75" r="2.25"/><circle fill="#F7F9F9" cx="213" cy="404.752" r="2.25"/><circle fill="#F7F9F9" cx="213" cy="54.75" r="2.25"/><circle fill="#F7F9F9" cx="20.5" cy="404.752" r="2.25"/><circle fill="#F7F9F9" cx="20.5" cy="54.75" r="2.25"/><circle fill="#F7F9F9" cx="283" cy="404.752" r="2.25"/><circle fill="#F7F9F9" cx="283" cy="54.75" r="2.25"/><circle fill="#F7F9F9" cx="73" cy="404.752" r="2.25"/><circle fill="#F7F9F9" cx="73" cy="54.75" r="2.25"/><circle fill="#F7F9F9" cx="335.5" cy="404.752" r="2.25"/><circle fill="#F7F9F9" cx="335.5" cy="54.75" r="2.25"/><circle fill="#F7F9F9" cx="125.5" cy="404.752" r="2.25"/><circle fill="#F7F9F9" cx="125.5" cy="54.75" r="2.25"/><circle fill="#F7F9F9" cx="388" cy="404.752" r="2.25"/><circle fill="#F7F9F9" cx="388" cy="54.75" r="2.25"/><circle fill="#F7F9F9" cx="178" cy="404.752" r="2.25"/><circle fill="#F7F9F9" cx="178" cy="54.75" r="2.25"/><circle fill="#F7F9F9" cx="440.5" cy="404.752" r="2.25"/><circle fill="#F7F9F9" cx="440.5" cy="54.75" r="2.25"/><circle fill="#F7F9F9" cx="230.5" cy="404.752" r="2.25"/><circle fill="#F7F9F9" cx="230.5" cy="54.75" r="2.25"/><circle fill="#F7F9F9" cx="38" cy="404.752" r="2.25"/><circle fill="#F7F9F9" cx="38" cy="54.75" r="2.25"/><circle fill="#F7F9F9" cx="300.5" cy="404.752" r="2.25"/><circle fill="#F7F9F9" cx="300.5" cy="54.75" r="2.25"/><circle fill="#F7F9F9" cx="90.5" cy="404.752" r="2.25"/><circle fill="#F7F9F9" cx="90.5" cy="54.75" r="2.25"/><circle fill="#F7F9F9" cx="353" cy="404.752" r="2.25"/><circle fill="#F7F9F9" cx="353" cy="54.75" r="2.25"/><circle fill="#F7F9F9" cx="143" cy="404.752" r="2.25"/><circle fill="#F7F9F9" cx="143" cy="54.75" r="2.25"/><circle fill="#F7F9F9" cx="405.5" cy="404.752" r="2.25"/><circle fill="#F7F9F9" cx="405.5" cy="54.75" r="2.25"/><circle fill="#F7F9F9" cx="195.5" cy="404.752" r="2.25"/><circle fill="#F7F9F9" cx="195.5" cy="54.75" r="2.25"/><circle fill="#F7F9F9" cx="458" cy="404.752" r="2.25"/><circle fill="#F7F9F9" cx="458" cy="54.75" r="2.25"/><circle fill="#F7F9F9" cx="248" cy="404.752" r="2.25"/><circle fill="#F7F9F9" cx="248" cy="54.75" r="2.25"/><circle fill="#F7F9F9" cx="3" cy="387.252" r="2.25"/><circle fill="#F7F9F9" cx="3" cy="457.252" r="2.25"/><circle fill="#F7F9F9" cx="3" cy="37.25" r="2.25"/><circle fill="#F7F9F9" cx="265.5" cy="387.252" r="2.25"/><circle fill="#F7F9F9" cx="265.5" cy="457.252" r="2.25"/><circle fill="#F7F9F9" cx="265.5" cy="37.25" r="2.25"/><circle fill="#F7F9F9" cx="55.5" cy="387.252" r="2.25"/><circle fill="#F7F9F9" cx="55.5" cy="457.252" r="2.25"/><circle fill="#F7F9F9" cx="55.5" cy="37.25" r="2.25"/><circle fill="#F7F9F9" cx="318" cy="387.252" r="2.25"/><circle fill="#F7F9F9" cx="318" cy="457.252" r="2.25"/><circle fill="#F7F9F9" cx="318" cy="37.25" r="2.25"/><circle fill="#F7F9F9" cx="108" cy="387.252" r="2.25"/><circle fill="#F7F9F9" cx="108" cy="457.252" r="2.25"/><circle fill="#F7F9F9" cx="108" cy="37.25" r="2.25"/><circle fill="#F7F9F9" cx="370.5" cy="387.252" r="2.25"/><circle fill="#F7F9F9" cx="370.5" cy="457.252" r="2.25"/><circle fill="#F7F9F9" cx="370.5" cy="37.25" r="2.25"/><circle fill="#F7F9F9" cx="160.5" cy="387.252" r="2.25"/><circle fill="#F7F9F9" cx="160.5" cy="457.252" r="2.25"/><circle fill="#F7F9F9" cx="160.5" cy="37.25" r="2.25"/><circle fill="#F7F9F9" cx="423" cy="387.252" r="2.25"/><circle fill="#F7F9F9" cx="423" cy="457.252" r="2.25"/><circle fill="#F7F9F9" cx="423" cy="37.25" r="2.25"/><circle fill="#F7F9F9" cx="213" cy="387.252" r="2.25"/><circle fill="#F7F9F9" cx="213" cy="457.252" r="2.25"/><circle fill="#F7F9F9" cx="213" cy="37.25" r="2.25"/><circle fill="#F7F9F9" cx="20.5" cy="387.252" r="2.25"/><circle fill="#F7F9F9" cx="20.5" cy="457.252" r="2.25"/><circle fill="#F7F9F9" cx="20.5" cy="37.25" r="2.25"/><circle fill="#F7F9F9" cx="283" cy="387.252" r="2.25"/><circle fill="#F7F9F9" cx="283" cy="457.252" r="2.25"/><circle fill="#F7F9F9" cx="283" cy="37.25" r="2.25"/><circle fill="#F7F9F9" cx="73" cy="387.252" r="2.25"/><circle fill="#F7F9F9" cx="73" cy="457.252" r="2.25"/><circle fill="#F7F9F9" cx="73" cy="37.25" r="2.25"/><circle fill="#F7F9F9" cx="335.5" cy="387.252" r="2.25"/><circle fill="#F7F9F9" cx="335.5" cy="457.252" r="2.25"/><circle fill="#F7F9F9" cx="335.5" cy="37.25" r="2.25"/><circle fill="#F7F9F9" cx="125.5" cy="387.252" r="2.25"/><circle fill="#F7F9F9" cx="125.5" cy="457.252" r="2.25"/><circle fill="#F7F9F9" cx="125.5" cy="37.25" r="2.25"/><circle fill="#F7F9F9" cx="388" cy="387.252" r="2.25"/><circle fill="#F7F9F9" cx="388" cy="457.252" r="2.25"/><circle fill="#F7F9F9" cx="388" cy="37.25" r="2.25"/><circle fill="#F7F9F9" cx="178" cy="387.252" r="2.25"/><circle fill="#F7F9F9" cx="178" cy="457.252" r="2.25"/><circle fill="#F7F9F9" cx="178" cy="37.25" r="2.25"/><circle fill="#F7F9F9" cx="440.5" cy="387.252" r="2.25"/><circle fill="#F7F9F9" cx="440.5" cy="457.252" r="2.25"/><circle fill="#F7F9F9" cx="440.5" cy="37.25" r="2.25"/><circle fill="#F7F9F9" cx="230.5" cy="387.252" r="2.25"/><circle fill="#F7F9F9" cx="230.5" cy="457.252" r="2.25"/><circle fill="#F7F9F9" cx="230.5" cy="37.25" r="2.25"/><circle fill="#F7F9F9" cx="38" cy="387.252" r="2.25"/><circle fill="#F7F9F9" cx="38" cy="457.252" r="2.25"/><circle fill="#F7F9F9" cx="38" cy="37.25" r="2.25"/><circle fill="#F7F9F9" cx="300.5" cy="387.252" r="2.25"/><circle fill="#F7F9F9" cx="300.5" cy="457.252" r="2.25"/><circle fill="#F7F9F9" cx="300.5" cy="37.25" r="2.25"/><circle fill="#F7F9F9" cx="90.5" cy="387.252" r="2.25"/><circle fill="#F7F9F9" cx="90.5" cy="457.252" r="2.25"/><circle fill="#F7F9F9" cx="90.5" cy="37.25" r="2.25"/><circle fill="#F7F9F9" cx="353" cy="387.252" r="2.25"/><circle fill="#F7F9F9" cx="353" cy="457.252" r="2.25"/><circle fill="#F7F9F9" cx="353" cy="37.25" r="2.25"/><circle fill="#F7F9F9" cx="143" cy="387.252" r="2.25"/><circle fill="#F7F9F9" cx="143" cy="457.252" r="2.25"/><circle fill="#F7F9F9" cx="143" cy="37.25" r="2.25"/><circle fill="#F7F9F9" cx="405.5" cy="387.252" r="2.25"/><circle fill="#F7F9F9" cx="405.5" cy="457.252" r="2.25"/><circle fill="#F7F9F9" cx="405.5" cy="37.25" r="2.25"/><circle fill="#F7F9F9" cx="195.5" cy="387.252" r="2.25"/><circle fill="#F7F9F9" cx="195.5" cy="457.252" r="2.25"/><circle fill="#F7F9F9" cx="195.5" cy="37.25" r="2.25"/><circle fill="#F7F9F9" cx="458" cy="387.252" r="2.25"/><circle fill="#F7F9F9" cx="458" cy="457.252" r="2.25"/><circle fill="#F7F9F9" cx="458" cy="37.25" r="2.25"/><circle fill="#F7F9F9" cx="248" cy="387.252" r="2.25"/><circle fill="#F7F9F9" cx="248" cy="457.252" r="2.25"/><circle fill="#F7F9F9" cx="248" cy="37.25" r="2.25"/><circle fill="#F7F9F9" cx="3" cy="369.752" r="2.25"/><circle fill="#F7F9F9" cx="3" cy="439.752" r="2.25"/><circle fill="#F7F9F9" cx="3" cy="19.75" r="2.25"/><circle fill="#F7F9F9" cx="3" cy="2.25" r="2.25"/><circle fill="#F7F9F9" cx="265.5" cy="369.752" r="2.25"/><circle fill="#F7F9F9" cx="265.5" cy="439.752" r="2.25"/><circle fill="#F7F9F9" cx="265.5" cy="19.75" r="2.25"/><circle fill="#F7F9F9" cx="265.5" cy="2.25" r="2.25"/><circle fill="#F7F9F9" cx="55.5" cy="369.752" r="2.25"/><circle fill="#F7F9F9" cx="55.5" cy="439.752" r="2.25"/><circle fill="#F7F9F9" cx="55.5" cy="19.75" r="2.25"/><circle fill="#F7F9F9" cx="55.5" cy="2.25" r="2.25"/><circle fill="#F7F9F9" cx="318" cy="369.752" r="2.25"/><circle fill="#F7F9F9" cx="318" cy="439.752" r="2.25"/><circle fill="#F7F9F9" cx="318" cy="19.75" r="2.25"/><circle fill="#F7F9F9" cx="318" cy="2.25" r="2.25"/><circle fill="#F7F9F9" cx="108" cy="369.752" r="2.25"/><circle fill="#F7F9F9" cx="108" cy="439.752" r="2.25"/><circle fill="#F7F9F9" cx="108" cy="19.75" r="2.25"/><circle fill="#F7F9F9" cx="108" cy="2.25" r="2.25"/><circle fill="#F7F9F9" cx="370.5" cy="369.752" r="2.25"/><circle fill="#F7F9F9" cx="370.5" cy="439.752" r="2.25"/><circle fill="#F7F9F9" cx="370.5" cy="19.75" r="2.25"/><circle fill="#F7F9F9" cx="370.5" cy="2.25" r="2.25"/><circle fill="#F7F9F9" cx="160.5" cy="369.752" r="2.25"/><circle fill="#F7F9F9" cx="160.5" cy="439.752" r="2.25"/><circle fill="#F7F9F9" cx="160.5" cy="19.75" r="2.25"/><circle fill="#F7F9F9" cx="160.5" cy="2.25" r="2.25"/><circle fill="#F7F9F9" cx="423" cy="369.752" r="2.25"/><circle fill="#F7F9F9" cx="423" cy="439.752" r="2.25"/><circle fill="#F7F9F9" cx="423" cy="19.75" r="2.25"/><circle fill="#F7F9F9" cx="423" cy="2.25" r="2.25"/><circle fill="#F7F9F9" cx="213" cy="369.752" r="2.25"/><circle fill="#F7F9F9" cx="213" cy="439.752" r="2.25"/><circle fill="#F7F9F9" cx="213" cy="19.75" r="2.25"/><circle fill="#F7F9F9" cx="213" cy="2.25" r="2.25"/><circle fill="#F7F9F9" cx="20.5" cy="369.752" r="2.25"/><circle fill="#F7F9F9" cx="20.5" cy="439.752" r="2.25"/><circle fill="#F7F9F9" cx="20.5" cy="19.75" r="2.25"/><circle fill="#F7F9F9" cx="20.5" cy="2.25" r="2.25"/><circle fill="#F7F9F9" cx="283" cy="369.752" r="2.25"/><circle fill="#F7F9F9" cx="283" cy="439.752" r="2.25"/><circle fill="#F7F9F9" cx="283" cy="19.75" r="2.25"/><circle fill="#F7F9F9" cx="283" cy="2.25" r="2.25"/><circle fill="#F7F9F9" cx="73" cy="369.752" r="2.25"/><circle fill="#F7F9F9" cx="73" cy="439.752" r="2.25"/><circle fill="#F7F9F9" cx="73" cy="19.75" r="2.25"/><circle fill="#F7F9F9" cx="73" cy="2.25" r="2.25"/><circle fill="#F7F9F9" cx="335.5" cy="369.752" r="2.25"/><circle fill="#F7F9F9" cx="335.5" cy="439.752" r="2.25"/><circle fill="#F7F9F9" cx="335.5" cy="19.75" r="2.25"/><circle fill="#F7F9F9" cx="335.5" cy="2.25" r="2.25"/><circle fill="#F7F9F9" cx="125.5" cy="369.752" r="2.25"/><circle fill="#F7F9F9" cx="125.5" cy="439.752" r="2.25"/><circle fill="#F7F9F9" cx="125.5" cy="19.75" r="2.25"/><circle fill="#F7F9F9" cx="125.5" cy="2.25" r="2.25"/><circle fill="#F7F9F9" cx="388" cy="369.752" r="2.25"/><circle fill="#F7F9F9" cx="388" cy="439.752" r="2.25"/><circle fill="#F7F9F9" cx="388" cy="19.75" r="2.25"/><circle fill="#F7F9F9" cx="388" cy="2.25" r="2.25"/><circle fill="#F7F9F9" cx="178" cy="369.752" r="2.25"/><circle fill="#F7F9F9" cx="178" cy="439.752" r="2.25"/><circle fill="#F7F9F9" cx="178" cy="19.75" r="2.25"/><circle fill="#F7F9F9" cx="178" cy="2.25" r="2.25"/><circle fill="#F7F9F9" cx="440.5" cy="369.752" r="2.25"/><circle fill="#F7F9F9" cx="440.5" cy="439.752" r="2.25"/><circle fill="#F7F9F9" cx="440.5" cy="19.75" r="2.25"/><circle fill="#F7F9F9" cx="440.5" cy="2.25" r="2.25"/><circle fill="#F7F9F9" cx="230.5" cy="369.752" r="2.25"/><circle fill="#F7F9F9" cx="230.5" cy="439.752" r="2.25"/><circle fill="#F7F9F9" cx="230.5" cy="19.75" r="2.25"/><circle fill="#F7F9F9" cx="230.5" cy="2.25" r="2.25"/><circle fill="#F7F9F9" cx="38" cy="369.752" r="2.25"/><circle fill="#F7F9F9" cx="38" cy="439.752" r="2.25"/><circle fill="#F7F9F9" cx="38" cy="19.75" r="2.25"/><circle fill="#F7F9F9" cx="38" cy="2.25" r="2.25"/><circle fill="#F7F9F9" cx="300.5" cy="369.752" r="2.25"/><circle fill="#F7F9F9" cx="300.5" cy="439.752" r="2.25"/><circle fill="#F7F9F9" cx="300.5" cy="19.75" r="2.25"/><circle fill="#F7F9F9" cx="300.5" cy="2.25" r="2.25"/><circle fill="#fff" cx="90.5" cy="369.752" r="2.25"/><circle fill="#F7F9F9" cx="90.5" cy="439.752" r="2.25"/><circle fill="#F7F9F9" cx="90.5" cy="19.75" r="2.25"/><circle fill="#F7F9F9" cx="90.5" cy="2.25" r="2.25"/><circle fill="#F7F9F9" cx="353" cy="369.752" r="2.25"/><circle fill="#F7F9F9" cx="353" cy="439.752" r="2.25"/><circle fill="#F7F9F9" cx="353" cy="19.75" r="2.25"/><circle fill="#F7F9F9" cx="353" cy="2.25" r="2.25"/><circle fill="#F7F9F9" cx="143" cy="369.752" r="2.25"/><circle fill="#F7F9F9" cx="143" cy="439.752" r="2.25"/><circle fill="#F7F9F9" cx="143" cy="19.75" r="2.25"/><circle fill="#F7F9F9" cx="143" cy="2.25" r="2.25"/><circle fill="#F7F9F9" cx="405.5" cy="369.752" r="2.25"/><circle fill="#F7F9F9" cx="405.5" cy="439.752" r="2.25"/><circle fill="#F7F9F9" cx="405.5" cy="19.75" r="2.25"/><circle fill="#F7F9F9" cx="405.5" cy="2.25" r="2.25"/><circle fill="#F7F9F9" cx="195.5" cy="369.752" r="2.25"/><circle fill="#F7F9F9" cx="195.5" cy="439.752" r="2.25"/><circle fill="#F7F9F9" cx="195.5" cy="19.75" r="2.25"/><circle fill="#F7F9F9" cx="195.5" cy="2.25" r="2.25"/><circle fill="#F7F9F9" cx="458" cy="369.752" r="2.25"/><circle fill="#F7F9F9" cx="458" cy="439.752" r="2.25"/><circle fill="#F7F9F9" cx="458" cy="19.75" r="2.25"/><circle fill="#F7F9F9" cx="458" cy="2.25" r="2.25"/><circle fill="#F7F9F9" cx="248" cy="369.752" r="2.25"/><circle fill="#F7F9F9" cx="248" cy="439.752" r="2.25"/><circle fill="#F7F9F9" cx="248" cy="19.75" r="2.25"/><circle fill="#F7F9F9" cx="248" cy="2.25" r="2.25"/><circle fill="#F7F9F9" cx="3" cy="212.252" r="2.25"/><circle fill="#F7F9F9" cx="55.5" cy="212.252" r="2.25"/><circle fill="#F7F9F9" cx="318" cy="212.252" r="2.25"/><circle fill="#F7F9F9" cx="108" cy="212.252" r="2.25"/><circle fill="#F7F9F9" cx="370.5" cy="212.252" r="2.25"/><circle fill="#F7F9F9" cx="160.5" cy="212.252" r="2.25"/><circle fill="#F7F9F9" cx="423" cy="212.252" r="2.25"/><circle fill="#F7F9F9" cx="213" cy="212.252" r="2.25"/><circle fill="#F7F9F9" cx="20.5" cy="212.252" r="2.25"/><circle fill="#F7F9F9" cx="283" cy="212.252" r="2.25"/><circle fill="#F7F9F9" cx="73" cy="212.252" r="2.25"/><circle fill="#F7F9F9" cx="335.5" cy="212.252" r="2.25"/><circle fill="#F7F9F9" cx="125.5" cy="212.252" r="2.25"/><circle fill="#F7F9F9" cx="388" cy="212.252" r="2.25"/><circle fill="#F7F9F9" cx="178" cy="212.252" r="2.25"/><circle fill="#F7F9F9" cx="440.5" cy="212.252" r="2.25"/><circle fill="#F7F9F9" cx="230.5" cy="212.252" r="2.25"/><circle fill="#F7F9F9" cx="38" cy="212.252" r="2.25"/><circle fill="#F7F9F9" cx="300.5" cy="212.252" r="2.25"/><circle fill="#F7F9F9" cx="90.5" cy="212.252" r="2.25"/><circle fill="#F7F9F9" cx="353" cy="212.252" r="2.25"/><circle fill="#F7F9F9" cx="143" cy="212.252" r="2.25"/><circle fill="#F7F9F9" cx="405.5" cy="212.252" r="2.25"/><circle fill="#F7F9F9" cx="195.5" cy="212.252" r="2.25"/><circle fill="#F7F9F9" cx="458" cy="212.252" r="2.25"/><circle fill="#fff" cx="248" cy="212.252" r="2.25"/><circle fill="#F7F9F9" cx="3" cy="194.752" r="2.25"/><circle fill="#fff" cx="265.5" cy="194.752" r="2.25"/><circle fill="#F7F9F9" cx="55.5" cy="194.752" r="2.25"/><circle fill="#F7F9F9" cx="318" cy="194.752" r="2.25"/><circle fill="#F7F9F9" cx="108" cy="194.752" r="2.25"/><circle fill="#F7F9F9" cx="370.5" cy="194.752" r="2.25"/><circle fill="#F7F9F9" cx="160.5" cy="194.752" r="2.25"/><circle fill="#F7F9F9" cx="423" cy="194.752" r="2.25"/><circle fill="#F7F9F9" cx="213" cy="194.752" r="2.25"/><circle fill="#F7F9F9" cx="20.5" cy="194.752" r="2.25"/><circle fill="#F7F9F9" cx="73" cy="194.752" r="2.25"/><circle fill="#F7F9F9" cx="335.5" cy="194.752" r="2.25"/><circle fill="#F7F9F9" cx="125.5" cy="194.752" r="2.25"/><circle fill="#F7F9F9" cx="388" cy="194.752" r="2.25"/><circle fill="#F7F9F9" cx="178" cy="194.752" r="2.25"/><circle fill="#F7F9F9" cx="440.5" cy="194.752" r="2.25"/><circle fill="#F7F9F9" cx="230.5" cy="194.752" r="2.25"/><circle fill="#F7F9F9" cx="38" cy="194.752" r="2.25"/><circle fill="#F7F9F9" cx="300.5" cy="194.752" r="2.25"/><circle fill="#F7F9F9" cx="90.5" cy="194.752" r="2.25"/><circle fill="#F7F9F9" cx="353" cy="194.752" r="2.25"/><circle fill="#F7F9F9" cx="143" cy="194.752" r="2.25"/><circle fill="#F7F9F9" cx="405.5" cy="194.752" r="2.25"/><circle fill="#F7F9F9" cx="195.5" cy="194.752" r="2.25"/><circle fill="#F7F9F9" cx="458" cy="194.752" r="2.25"/><circle fill="#F7F9F9" cx="248" cy="194.752" r="2.25"/><circle fill="#F7F9F9" cx="3" cy="177.252" r="2.25"/><circle fill="#F7F9F9" cx="265.5" cy="177.252" r="2.25"/><circle fill="#F7F9F9" cx="55.5" cy="177.252" r="2.25"/><circle fill="#F7F9F9" cx="318" cy="177.252" r="2.25"/><circle fill="#F7F9F9" cx="108" cy="177.252" r="2.25"/><circle fill="#F7F9F9" cx="370.5" cy="177.252" r="2.25"/><circle fill="#F7F9F9" cx="160.5" cy="177.252" r="2.25"/><circle fill="#F7F9F9" cx="423" cy="177.252" r="2.25"/><circle fill="#F7F9F9" cx="213" cy="177.252" r="2.25"/><circle fill="#F7F9F9" cx="20.5" cy="177.252" r="2.25"/><circle fill="#fff" cx="283" cy="177.252" r="2.25"/><circle fill="#F7F9F9" cx="73" cy="177.252" r="2.25"/><circle fill="#F7F9F9" cx="335.5" cy="177.252" r="2.25"/><circle fill="#F7F9F9" cx="125.5" cy="177.252" r="2.25"/><circle fill="#F7F9F9" cx="388" cy="177.252" r="2.25"/><circle fill="#F7F9F9" cx="178" cy="177.252" r="2.25"/><circle fill="#F7F9F9" cx="440.5" cy="177.252" r="2.25"/><circle fill="#F7F9F9" cx="230.5" cy="177.252" r="2.25"/><circle fill="#F7F9F9" cx="38" cy="177.252" r="2.25"/><circle fill="#F7F9F9" cx="90.5" cy="177.252" r="2.25"/><circle fill="#F7F9F9" cx="353" cy="177.252" r="2.25"/><circle fill="#F7F9F9" cx="143" cy="177.252" r="2.25"/><circle fill="#F7F9F9" cx="405.5" cy="177.252" r="2.25"/><circle fill="#F7F9F9" cx="195.5" cy="177.252" r="2.25"/><circle fill="#F7F9F9" cx="458" cy="177.252" r="2.25"/><circle fill="#F7F9F9" cx="248" cy="177.252" r="2.25"/><circle fill="#F7F9F9" cx="3" cy="159.752" r="2.25"/><circle fill="#F7F9F9" cx="265.5" cy="159.752" r="2.25"/><circle fill="#F7F9F9" cx="55.5" cy="159.752" r="2.25"/><circle fill="#F7F9F9" cx="108" cy="159.752" r="2.25"/><circle fill="#F7F9F9" cx="370.5" cy="159.752" r="2.25"/><circle fill="#F7F9F9" cx="160.5" cy="159.752" r="2.25"/><circle fill="#F7F9F9" cx="423" cy="159.752" r="2.25"/><circle fill="#F7F9F9" cx="213" cy="159.752" r="2.25"/><circle fill="#F7F9F9" cx="20.5" cy="159.752" r="2.25"/><circle fill="#F7F9F9" cx="283" cy="159.752" r="2.25"/><circle fill="#F7F9F9" cx="73" cy="159.752" r="2.25"/><circle fill="#F7F9F9" cx="335.5" cy="159.752" r="2.25"/><circle fill="#F7F9F9" cx="125.5" cy="159.752" r="2.25"/><circle fill="#F7F9F9" cx="388" cy="159.752" r="2.25"/><circle fill="#F7F9F9" cx="178" cy="159.752" r="2.25"/><circle fill="#F7F9F9" cx="440.5" cy="159.752" r="2.25"/><circle fill="#F7F9F9" cx="230.5" cy="159.752" r="2.25"/><circle fill="#F7F9F9" cx="38" cy="159.752" r="2.25"/><circle fill="#fff" cx="300.5" cy="159.752" r="2.25"/><circle fill="#F7F9F9" cx="90.5" cy="159.752" r="2.25"/><circle fill="#F7F9F9" cx="353" cy="159.752" r="2.25"/><circle fill="#F7F9F9" cx="143" cy="159.752" r="2.25"/><circle fill="#F7F9F9" cx="405.5" cy="159.752" r="2.25"/><circle fill="#F7F9F9" cx="195.5" cy="159.752" r="2.25"/><circle fill="#F7F9F9" cx="458" cy="159.752" r="2.25"/><circle fill="#F7F9F9" cx="248" cy="159.752" r="2.25"/><circle fill="#F7F9F9" cx="3" cy="142.252" r="2.25"/><circle fill="#F7F9F9" cx="265.5" cy="142.252" r="2.25"/><circle fill="#F7F9F9" cx="55.5" cy="142.252" r="2.25"/><circle fill="#fff" cx="318" cy="142.252" r="2.25"/><circle fill="#F7F9F9" cx="108" cy="142.252" r="2.25"/><circle fill="#F7F9F9" cx="370.5" cy="142.252" r="2.25"/><circle fill="#F7F9F9" cx="160.5" cy="142.252" r="2.25"/><circle fill="#F7F9F9" cx="423" cy="142.252" r="2.25"/><circle fill="#F7F9F9" cx="213" cy="142.252" r="2.25"/><circle fill="#F7F9F9" cx="20.5" cy="142.252" r="2.25"/><circle fill="#F7F9F9" cx="283" cy="142.252" r="2.25"/><circle fill="#F7F9F9" cx="73" cy="142.252" r="2.25"/><circle fill="#F7F9F9" cx="125.5" cy="142.252" r="2.25"/><circle fill="#F7F9F9" cx="388" cy="142.252" r="2.25"/><circle fill="#F7F9F9" cx="178" cy="142.252" r="2.25"/><circle fill="#F7F9F9" cx="440.5" cy="142.252" r="2.25"/><circle fill="#F7F9F9" cx="230.5" cy="142.252" r="2.25"/><circle fill="#F7F9F9" cx="38" cy="142.252" r="2.25"/><circle fill="#F7F9F9" cx="300.5" cy="142.252" r="2.25"/><circle fill="#F7F9F9" cx="90.5" cy="142.252" r="2.25"/><circle fill="#F7F9F9" cx="353" cy="142.252" r="2.25"/><circle fill="#F7F9F9" cx="143" cy="142.252" r="2.25"/><circle fill="#F7F9F9" cx="405.5" cy="142.252" r="2.25"/><circle fill="#F7F9F9" cx="195.5" cy="142.252" r="2.25"/><circle fill="#F7F9F9" cx="458" cy="142.252" r="2.25"/><circle fill="#F7F9F9" cx="248" cy="142.252" r="2.25"/><circle fill="#F7F9F9" cx="3" cy="124.752" r="2.25"/><circle fill="#F7F9F9" cx="265.5" cy="124.752" r="2.25"/><circle fill="#F7F9F9" cx="55.5" cy="124.752" r="2.25"/><circle fill="#F7F9F9" cx="318" cy="124.752" r="2.25"/><circle fill="#F7F9F9" cx="108" cy="124.752" r="2.25"/><circle fill="#F7F9F9" cx="370.5" cy="124.752" r="2.25"/><circle fill="#F7F9F9" cx="160.5" cy="124.752" r="2.25"/><circle fill="#F7F9F9" cx="423" cy="124.752" r="2.25"/><circle fill="#F7F9F9" cx="213" cy="124.752" r="2.25"/><circle fill="#F7F9F9" cx="20.5" cy="124.752" r="2.25"/><circle fill="#F7F9F9" cx="283" cy="124.752" r="2.25"/><circle fill="#F7F9F9" cx="73" cy="124.752" r="2.25"/><circle fill="#fff" cx="335.5" cy="124.752" r="2.25"/><circle fill="#F7F9F9" cx="125.5" cy="124.752" r="2.25"/><circle fill="#F7F9F9" cx="388" cy="124.752" r="2.25"/><circle fill="#F7F9F9" cx="178" cy="124.752" r="2.25"/><circle fill="#F7F9F9" cx="440.5" cy="124.752" r="2.25"/><circle fill="#F7F9F9" cx="230.5" cy="124.752" r="2.25"/><circle fill="#F7F9F9" cx="38" cy="124.752" r="2.25"/><circle fill="#F7F9F9" cx="300.5" cy="124.752" r="2.25"/><circle fill="#F7F9F9" cx="90.5" cy="124.752" r="2.25"/><circle fill="#F7F9F9" cx="143" cy="124.752" r="2.25"/><circle fill="#F7F9F9" cx="405.5" cy="124.752" r="2.25"/><circle fill="#F7F9F9" cx="195.5" cy="124.752" r="2.25"/><circle fill="#F7F9F9" cx="458" cy="124.752" r="2.25"/><circle fill="#F7F9F9" cx="248" cy="124.752" r="2.25"/><circle fill="#F7F9F9" cx="3" cy="107.252" r="2.25"/><circle fill="#F7F9F9" cx="265.5" cy="107.252" r="2.25"/><circle fill="#F7F9F9" cx="55.5" cy="107.252" r="2.25"/><circle fill="#F7F9F9" cx="318" cy="107.252" r="2.25"/><circle fill="#F7F9F9" cx="108" cy="107.252" r="2.25"/><circle fill="#F7F9F9" cx="160.5" cy="107.252" r="2.25"/><circle fill="#F7F9F9" cx="423" cy="107.252" r="2.25"/><circle fill="#F7F9F9" cx="213" cy="107.252" r="2.25"/><circle fill="#F7F9F9" cx="20.5" cy="107.252" r="2.25"/><circle fill="#F7F9F9" cx="283" cy="107.252" r="2.25"/><circle fill="#F7F9F9" cx="73" cy="107.252" r="2.25"/><circle fill="#F7F9F9" cx="335.5" cy="107.252" r="2.25"/><circle fill="#F7F9F9" cx="125.5" cy="107.252" r="2.25"/><circle fill="#F7F9F9" cx="388" cy="107.252" r="2.25"/><circle fill="#F7F9F9" cx="178" cy="107.252" r="2.25"/><circle fill="#F7F9F9" cx="440.5" cy="107.252" r="2.25"/><circle fill="#F7F9F9" cx="230.5" cy="107.252" r="2.25"/><circle fill="#F7F9F9" cx="38" cy="107.252" r="2.25"/><circle fill="#F7F9F9" cx="300.5" cy="107.252" r="2.25"/><circle fill="#F7F9F9" cx="90.5" cy="107.252" r="2.25"/><circle fill="#fff" cx="353" cy="107.252" r="2.25"/><circle fill="#F7F9F9" cx="143" cy="107.252" r="2.25"/><circle fill="#F7F9F9" cx="405.5" cy="107.252" r="2.25"/><circle fill="#F7F9F9" cx="195.5" cy="107.252" r="2.25"/><circle fill="#F7F9F9" cx="458" cy="107.252" r="2.25"/><circle fill="#F7F9F9" cx="248" cy="107.252" r="2.25"/><circle fill="#F7F9F9" cx="3" cy="89.752" r="2.25"/><circle fill="#F7F9F9" cx="265.5" cy="89.752" r="2.25"/><circle fill="#F7F9F9" cx="55.5" cy="89.752" r="2.25"/><circle fill="#F7F9F9" cx="318" cy="89.752" r="2.25"/><circle fill="#F7F9F9" cx="108" cy="89.752" r="2.25"/><circle fill="#fff" cx="370.5" cy="89.752" r="2.25"/><circle fill="#F7F9F9" cx="160.5" cy="89.752" r="2.25"/><circle fill="#F7F9F9" cx="423" cy="89.752" r="2.25"/><circle fill="#F7F9F9" cx="213" cy="89.752" r="2.25"/><circle fill="#F7F9F9" cx="20.5" cy="89.752" r="2.25"/><circle fill="#F7F9F9" cx="283" cy="89.752" r="2.25"/><circle fill="#F7F9F9" cx="73" cy="89.752" r="2.25"/><circle fill="#F7F9F9" cx="335.5" cy="89.752" r="2.25"/><circle fill="#F7F9F9" cx="125.5" cy="89.752" r="2.25"/><circle fill="#F7F9F9" cx="178" cy="89.752" r="2.25"/><circle fill="#F7F9F9" cx="440.5" cy="89.752" r="2.25"/><circle fill="#F7F9F9" cx="230.5" cy="89.752" r="2.25"/><circle fill="#F7F9F9" cx="38" cy="89.752" r="2.25"/><circle fill="#F7F9F9" cx="300.5" cy="89.752" r="2.25"/><circle fill="#F7F9F9" cx="90.5" cy="89.752" r="2.25"/><circle fill="#F7F9F9" cx="353" cy="89.752" r="2.25"/><circle fill="#F7F9F9" cx="143" cy="89.752" r="2.25"/><circle fill="#F7F9F9" cx="405.5" cy="89.752" r="2.25"/><circle fill="#F7F9F9" cx="195.5" cy="89.752" r="2.25"/><circle fill="#F7F9F9" cx="458" cy="89.752" r="2.25"/><circle fill="#F7F9F9" cx="248" cy="89.752" r="2.25"/><circle fill="#F7F9F9" cx="125.5" cy="352.252" r="2.25"/><circle fill="#F7F9F9" cx="353" cy="124.752" r="2.25"/><circle fill="#F7F9F9" cx="388" cy="89.752" r="2.25"/><circle fill="#F7F9F9" cx="143" cy="334.752" r="2.25"/><circle fill="#F7F9F9" cx="160.5" cy="317.252" r="2.25"/><circle fill="#F7F9F9" cx="178" cy="299.752" r="2.25"/><circle fill="#F7F9F9" cx="195.5" cy="282.252" r="2.25"/><circle fill="#F7F9F9" cx="213" cy="264.752" r="2.25"/><circle fill="#F7F9F9" cx="230.5" cy="247.252" r="2.25"/><circle fill="#F7F9F9" cx="248" cy="229.752" r="2.25"/><circle fill="#F7F9F9" cx="265.5" cy="212.252" r="2.25"/><circle fill="#F7F9F9" cx="283" cy="194.752" r="2.25"/><circle fill="#F7F9F9" cx="300.5" cy="177.252" r="2.25"/><circle fill="#F7F9F9" cx="318" cy="159.752" r="2.25"/><circle fill="#F7F9F9" cx="335.5" cy="142.252" r="2.25"/><circle fill="#F7F9F9" cx="370.5" cy="107.252" r="2.25"/></g></svg>