<svg xmlns="http://www.w3.org/2000/svg" fill="none" viewBox="0 0 426 343"><path d="M155.241 338.567c-.766 0 0 0 0 0-.766 0-.766 0 0 0L144.508 284.9l-36.8-8.433 24.533-19.167-3.066-28.367h51.366l-4.6-42.933 36.034-20.7-2.3-13.8 19.166-17.633-7.666-25.3-19.167-5.367-32.967-31.433L423.575 2l-69.767 254.533-60.567-60.566-138 142.6ZM107.708 275.7l36.8 8.433 10.733 53.667 138-142.6 60.567 60.567L423.575 2 169.041 71.767l32.2 31.433 19.167 5.367 8.433 23.766-19.166 17.634 2.3 14.566L175.941 186l5.367 42.933h-51.367l2.3 28.367-24.533 18.4Z" fill="#9DA4A7"/><path d="m151.405 322.467-7.666-37.567-12.267-27.6 49.067-28.367 17.633-36.033-23-6.9 26.833-1.533 9.2-19.167 12.267-6.133-14.567-7.667 16.867-1.533 3.067-16.867 7.666-12.267-15.333-12.266-7.667-18.4-10.733 13.033 8.433-18.4-41.4-13.033 61.334-2.3 11.5-17.634 13.033 4.6 31.433-16.866 46-.767 36.034-21.467 3.833 12.267 9.967-2.3L423.572 2l-24.533 23.767 15.333 9.966L400.572 48l1.533 36.8-16.866 33.733-11.5 12.267 9.966 22.233-18.4 31.434 3.834 20.7-19.167 6.133 5.367 44.467-21.467-41.4-17.633 3.066-4.6-28.366-16.1 6.9-6.9-3.834-7.667 9.2 2.3 6.9-21.467 16.1-40.633 23.767 10.733 12.267-40.633 29.9-16.867 29.9-7.666-9.2-15.334 11.5Zm-6.9-36.8 6.9 36.8 13.034-10.734-19.934-26.066Zm20.7 25.3 6.9 9.2 16.867-29.134-23.767 19.934Zm-20.7-26.067 20.7 26.067 24.534-19.934-45.234-6.133Zm0 0 44.467 6.133-29.133-17.633-15.334 11.5Zm16.1-11.5 29.134 16.867-4.6-34.5-24.534 17.633Zm58.267-24.533-28.367 41.4 39.867-29.134-11.5-12.266Zm-19.933-3.067-8.434 43.7 29.134-41.4-20.7-2.3Zm-13.8 9.967 4.6 34.5 8.433-43.7-13.033 9.2Zm-52.9 1.533 12.266 26.833 9.2-14.566-21.466-12.267Zm21.466 13.033-9.2 13.8 14.567-10.733-5.367-3.067Zm.767 0 5.367 3.067 24.533-17.633-.767-6.9-17.633 3.066-11.5 18.4ZM132.239 257.3l21.466 12.267 12.267-18.4-33.733 6.133Zm48.3-28.367-47.534 27.6 32.967-5.366 14.567-22.234Zm152.566-13.8 20.7 40.634-5.366-43.7-15.334 3.066Zm-148.733 33.734.767 6.9 13.033-9.2-13.8 2.3Zm-3.067-19.934-14.566 22.234 16.866-3.067-2.3-19.167Zm0 0 2.3 19.167 13.8-2.3-16.1-16.867Zm17.634 16.867 19.166 2.3-18.4-9.2-.766 6.9Zm.766-7.667 19.167 9.967v-20.7l-16.867.767-2.3 9.966Zm19.167-11.5v20.7l39.867-23-39.867 2.3Zm-36.8 2.3 16.1 16.1 1.533-6.9-17.633-9.2Zm0 0 17.633 9.2 1.534-9.966-19.167.766Zm22.233-19.166-23 18.4 19.934-.767 3.066-17.633Zm-5.366-16.867-16.867 35.267 23-18.4 2.3-14.567-8.433-2.3Zm6.133 16.867-3.067 17.633 16.867-.767v-28.366l-13.8 11.5Zm13.8-11.5v28.366l40.633-2.3-40.633-26.066Zm24.533-6.134 16.867 32.2 11.5-39.866-28.367 7.666Zm-24.533 6.134 40.633 26.066-16.866-32.2-23.767 6.134Zm53.667-13.8-12.267 39.866 17.633-22.233-5.366-17.633Zm6.133 17.633-17.633 21.467 19.933-15.334-2.3-6.133Zm52.133.767-15.333 14.566 16.867-3.066-1.534-11.5Zm-3.066-20.7-12.267 34.5 15.333-14.567-3.066-19.933Zm-17.634 6.9 4.6 27.6 12.267-35.267-16.867 7.667Zm20.7 13.8 1.534 11.5 15.333-3.067-10.733-15.333-6.134 6.9Zm25.3-3.834-7.666 13.034 19.166-6.134-11.5-6.9Zm-18.4-3.066 10.734 15.333 2.3-16.1-7.667-4.6-5.367 5.367Zm13.8 0-2.3 15.333 6.9-12.267-4.6-3.066Zm-144.133-.767-2.3 13.8 13.8-10.733-11.5-3.067Zm149.5 3.067 11.5 6.9-7.667-13.034-3.833 6.134Zm3.067-6.134 7.666 12.267-3.833-19.167-3.833 6.9Zm-32.2-9.966 3.066 19.933 6.9-6.133-9.966-13.8Zm-55.2 2.3 6.133 16.866 7.667-9.2-13.8-7.666Zm78.966 10.733 4.6 3.067 3.834-6.134-6.134-9.966-2.3 13.033Zm-144.133-.767 11.5 3.067 2.3-14.567-12.267.767-1.533 10.733Zm13.8-11.5-2.3 14.567 23.767-6.133-4.6-9.2-16.867.766Zm107.333-.766 9.2 13.8 5.367-5.367-14.567-8.433Zm-42.166 9.966 6.9 3.834 12.266-27.6-19.166 23.766Zm19.933-24.533-12.267 27.6 16.1-6.9-3.833-20.7Zm37.567 23 7.666 4.6 2.3-13.8-9.966 9.2Zm-144.9 1.533 7.666 2.3 1.534-10.733h-6.134l-3.066 8.433ZM176.705 186l22.234 6.133 3.833-7.666L176.705 186Zm95.834-2.3 13.8 7.667 19.166-23.767-32.966 16.1Zm81.266-2.3 6.134 10.733 3.833-6.9-2.3-11.5-7.667 7.667Zm-115.766.767 4.6 9.2 29.133-7.667-19.167-9.967-14.566 8.434Zm89.7-.767 15.333 9.2 9.967-9.2-14.567-11.5-10.733 11.5Zm-21.467-13.8 3.833 21.467 16.867-6.9-20.7-14.567Zm55.967 5.367 2.3 11.5 17.633-29.9-19.933 18.4Zm-150.267-6.9-8.433 17.633h5.366l3.067-17.633Zm48.3 3.833 11.5 13.8 3.067-22.233-14.567 8.433Zm-48.3-4.6-3.067 18.4 12.267-.767 1.533-10.733-10.733-6.9Zm82.033-6.133L272.539 183.7l32.966-16.1-11.5-8.433Zm-40.633 14.566 18.4 9.967-11.5-13.8-6.9 3.833Zm26.833-15.333-7.666 24.533 21.466-24.533-6.133-3.833-7.667 3.833Zm-56.733 13.8-2.3 10.733 16.1-.766-13.8-9.967Zm52.133-10.733-3.066 20.7 6.9-23-3.834 2.3ZM223.472 172.2l14.567 9.2-3.067-17.633-9.2-4.6-2.3 13.033Zm20.7-3.067-5.367 12.267 14.567-7.667-9.2-4.6Zm62.1-1.533 21.467 14.567 3.066-18.4-9.966-8.434-14.567 12.267Zm-71.3-3.067 3.067 16.867 5.366-12.267-8.433-4.6ZM330.805 163l-3.066 18.4 9.966-12.267-6.9-6.133Zm7.667 6.133 14.567 11.5 3.833-32.966-18.4 21.466Zm19.167-20.7-3.834 32.2 8.434-7.666-4.6-24.534Zm-113.467 19.934 9.2 4.6 6.9-3.834-10.733-13.033-5.367 12.267Zm113.467-20.7 4.6 25.3 19.933-19.167-24.533-6.133Zm-144.9 17.633 10.733 6.9 2.3-13.033-13.033 6.133Zm36.8-8.433 10.733 13.033 15.333-8.433 2.3-13.034-2.3-1.533-22.233.767-3.833 9.2ZM330.805 163l7.667 6.133 18.4-21.466-23-5.367-3.067 20.7Zm-95.833.767 8.433 4.6 5.367-12.267-5.367-6.9-9.966 4.6 1.533 9.967Zm59.033-4.6 11.5 8.433.767-22.233-12.267 13.8Zm13.034-15.334-.767 23 13.8-12.266-13.033-10.734ZM225.772 158.4l9.2 4.6-1.533-8.433-7.667 3.833Zm95.067-3.833 9.966 8.433 3.067-20.7-13.033 12.267Zm-42.934-6.9-2.3 13.033 4.6-2.3 2.3-7.667-4.6-3.066Zm9.967 6.9 6.133 3.833 12.267-14.567-18.4 10.734Zm-77.433-3.834 14.566 7.667 1.534-8.433-16.1.766Zm72.066.767-2.3 6.9 6.9-3.833-4.6-3.067Zm-55.2-1.533-1.533 8.433 7.667-3.833-.767-5.367-5.367.767Zm16.867-.767 5.367 6.9 3.833-8.433-6.9.766-2.3.767Zm39.1 1.533 4.6 3.067 18.4-9.967-21.467 1.534-1.533 5.366Zm-50.6-1.533.767 5.367 9.966-4.6-.766-.767h-9.967Zm75.133-5.367 12.267 9.967 13.033-12.267-25.3 2.3Zm49.834 3.067 24.533 5.367-9.967-21.467-14.566 16.1Zm-79.734.767 4.6 3.066 1.534-5.366-6.134.766v1.534Zm-48.3-13.8-2.3 15.333h5.367l-3.067-15.333Zm13.8 14.566h2.3-2.3Zm-13.8-15.333 2.3 15.333 9.967-.766-12.267-14.567Zm0 0 13.034 15.333h3.833l9.2-4.6 3.833-8.433-6.9-4.6-23 2.3Zm25.3 10.733-7.666 3.834 6.133-.767 1.533-3.067Zm.767 0-1.533 3.834 21.466-1.534-9.966-6.9-9.967 4.6Zm19.933 2.3 1.534 1.534v-1.534h-1.534Zm59.034-4.6 23 5.367 14.566-16.1-37.566 10.733Zm-69-2.3 9.966 6.9h2.3l2.3-13.8-14.566 6.9Zm14.566-7.666-2.3 13.8 6.134-.767 6.133-18.4-9.967 5.367Zm10.734-4.6-6.134 18.4 22.234-1.534-16.1-16.866Zm49.066-13.8-32.2 29.9 26.067-2.3 6.133-27.6ZM290.939 126.2l16.1 16.867 32.2-30.667-48.3 13.8Zm-31.434 9.2-3.833 8.433 9.2-4.6-5.367-3.833Zm80.5-22.233-6.133 28.366 37.567-10.733-31.434-17.633Zm-80.5 21.466 5.367 3.834 15.333-7.667.767-3.833-18.4 2.3-3.067 5.366Zm-6.133-3.833 6.133 4.6 2.3-5.367-8.433.767Zm-13.033-9.2-9.967 10.733 22.233-2.3-12.266-8.433Zm-3.067-1.533-6.9 11.5 9.2-9.967-2.3-1.533Zm43.7 7.666-.767 3.834 9.2-4.6-8.433.766Zm59.8-14.566 31.433 17.633-6.133-30.667-25.3 13.034Zm26.067-13.034 6.133 29.9 11.5-11.5-17.633-18.4Zm-126.5 21.467 12.266 8.433 9.2-.766 3.834-9.2-19.934-5.367-5.366 6.9Zm26.066-1.533-3.833 9.2 18.4-2.3.767-3.067-15.334-3.833Zm15.334 3.833-.767 3.067 8.433-.767-7.666-2.3Zm0 0 8.433 2.3-7.667-7.667-.766 5.367Zm39.1-27.6-29.9 29.9 48.3-13.033-18.4-16.867Zm-38.334 22.233 7.667 7.667-.767-55.2-6.9 47.533Zm7.667-49.833.767 56.733 19.166-39.1L290.172 68.7Zm19.933 17.633-18.4 39.1 29.9-29.133-11.5-9.967Zm-43.7 33.734 14.567 3.833.767-5.367-10.734-9.966-4.6 11.5Zm-28.366 0 2.3 1.533 6.133-6.133-4.6-1.534-3.833 6.134Zm8.433-5.367 19.167 4.6 5.366-11.5-9.966-9.2-14.567 16.1Zm-24.533-5.367 15.333 10.734 3.833-6.134-19.166-4.6Zm144.9-9.2 17.633 18.4-.767-25.3-16.866 6.9Zm16.866-7.666.767 25.3L401.339 84.8l-17.634 7.667ZM271.772 107.8l9.967 9.967 7.666-48.3-17.633 38.333Zm-29.9 6.133 4.6 1.534 15.333-16.1-6.9-6.134-13.033 20.7Zm-20.7-5.366 19.933 5.366 13.034-21.466-1.534-1.534-31.433 17.634Zm127.267-39.1-7.667 42.933 26.067-13.033-18.4-29.9ZM321.605 96.3l18.4 16.1-3.066-31.433L321.605 96.3Zm15.334-16.1 3.066 31.433 7.667-42.166L336.939 80.2Zm-123.434 9.967 7.667 17.633 9.967-38.333-17.634 20.7Zm17.634-20.7-9.967 38.333 23.767-25.3-13.8-13.033Zm14.566 13.8L221.939 107.8l30.666-17.633-6.9-6.9Zm16.1 15.333 9.967 9.2 17.633-38.333-27.6 29.133Zm-51.366-13.8-7.667 16.867 9.967-12.267-2.3-4.6Zm166.366-6.9-9.966 21.467 16.866-6.9V80.2l-6.9-2.3Zm-28.366-8.433 17.633 29.9 9.967-21.467-27.6-8.433ZM254.905 91.7l6.9 6.133 27.6-29.133-31.433 18.4-3.067 4.6Zm55.2-5.367 10.734 9.967 15.333-15.333-1.533-17.634-11.5-5.366-13.034 28.366Zm73.6-6.133v12.267l16.867-6.9-16.867-5.367Zm-130.333 9.967 1.533 1.533 2.3-3.833-3.833 2.3ZM211.205 84.8l2.3 5.367 16.867-19.934L211.205 84.8Zm34.5-1.533 6.9 6.9 4.6-2.3 11.5-18.4h-9.966l-13.034 13.8Zm23-14.567-10.733 17.633 31.433-18.4-20.7.767Zm21.467 0 19.933 17.633 13.8-28.366-10.733-5.367-23 16.1Zm93.533 10.733 16.867 5.367-17.633-21.467.766 16.1Zm-213.133-7.666L211.205 84.8l19.934-15.333-60.567 2.3Zm213.133-9.2 17.634 21.466-9.967-28.366-7.667 6.9Zm8.434-6.9 9.2 28.366-1.534-35.266-7.666 6.9Zm-161 13.8 13.8 13.033 13.033-13.8-26.833.767Zm104.266-6.134 1.534 16.867 10.733-10.733-12.267-6.134Zm41.4 13.8 6.9 2.3v-16.1l-6.9 13.8Zm-27.6-7.666 27.6 8.433 6.134-14.567-33.734 6.134Zm-94.3-13.034L231.139 68.7h26.833l7.667-8.433-10.734-3.834Zm78.2-17.633 15.334 29.9 16.866-14.567-32.2-15.333Zm32.967 16.1-16.867 14.567 33.734-6.134-16.867-8.433Zm-30.667 7.667 12.267 6.133-14.567-29.133 2.3 23Zm-92.766-10.734L231.905 68.7l23-12.267-12.266-4.6Zm24.533 8.434-7.667 8.433h9.967l3.833-6.133-6.133-2.3Zm5.367 2.3-3.834 6.133h19.934l-16.1-6.133Zm.766 0 16.867 6.133-3.067-28.367-13.8 22.234Zm13.8-23 3.067 29.133 23-16.1-26.067-13.033Zm36.8 17.633 10.734 5.367-2.3-23-8.434 17.633Zm42.167-3.067 16.867 8.434-5.367-17.634-11.5 9.2Zm11.5-9.966 5.367 17.633 6.133-13.8-3.833-10.733-7.667 6.9Zm-110.4 16.1 5.367 2.3L285.572 41.1l-18.4 19.167Zm122.667-11.5-6.134 13.8 7.667-6.9-1.533-6.9Zm-134.167 7.666 11.5 3.834 19.167-20.7-30.667 16.866Zm58.267-4.6 9.966 4.6 8.434-17.633-18.4 13.033Zm75.9-3.833 2.3 6.9 7.666-6.9-.766-21.467-9.2 21.467Zm-56.734-9.2 32.2 15.333 11.5-9.966-4.6-15.334-39.1 9.967Zm-45.233.767 25.3 12.266L332.339 38.8l-44.467.767Zm111.933-13.8L400.572 48l13.8-12.267-14.567-9.966Zm-13.8 11.5L389.072 48l9.2-21.467-12.267 10.734ZM372.972 29.6l4.6 14.567 8.433-6.9-3.833-10.734-9.2 3.067Zm-4.6-12.267-34.5 20.7 38.333-9.2-3.833-11.5Zm14.567 9.2 3.066 9.967 13.034-10.733-16.1.766Zm39.866-23.766-39.1 23.766 16.1-.766 23-23Z" fill="#9DA4A7"/><path d="M202.003 120.834c-.767 0 0 0 0 0l-27.6-14.567 32.2 11.5-4.6 3.067Zm-25.3-13.8 25.3 13.033 4.6-2.3-29.9-10.733Zm32.201 35.266-13.8-17.633h8.433l5.367 17.633c.767 0 .767 0 0 0Zm-13.033-16.867 13.033 16.1-4.6-16.1h-8.433ZM195.104 163l-38.333-6.9 29.9-7.667L195.104 163c0-.767 0-.767 0 0Zm-37.567-7.667 37.567 6.9-9.2-14.566-28.367 7.666Zm-1.53 29.9 2.3-9.2 20.7-2.3-23 11.5Zm2.3-8.434-2.3 8.434 22.233-9.967-19.933 1.533Zm-35.269 35.268c-.767 0 0 0 0 0l44.467-22.234-3.067 16.1-41.4 6.134Zm43.7-21.467-42.933 21.467 39.866-6.134 3.067-15.333Zm-49.835 60.566-15.334-4.6 5.367-30.667 9.967 35.267c.766 0 .766 0 0 0 .766 0 0 0 0 0Zm-15.334-4.6 15.334 3.833-9.967-33.733-5.367 29.9Zm-16.862 27.6-20.7-2.3 46-13.8-25.3 16.1Zm-19.934-3.067 19.934 2.3 24.533-15.333-44.467 13.033ZM50.972 255l16.867-23 5.366 11.5L50.972 255Zm16.867-23-16.1 22.233 20.7-11.5-4.6-10.733Zm-.002 71.3-19.166-.766-6.9-10.734 26.066 11.5Zm-19.166-1.533 17.633.767L41.771 291.8l6.9 9.967Zm65.936 6.9-31.434-15.334 51.367.767-19.933 14.567ZM83.94 293.333l30.667 14.567 19.166-13.8-49.833-.767ZM4.972 340.867l-3.833-6.133 21.466-1.533-17.633 7.666Zm-3.067-6.133 3.067 5.367 16.867-7.667-19.934 2.3Zm76.666-1.534-13.8-1.533 21.466-1.533-7.666 3.066Zm-12.267-1.533 12.267 1.533 6.9-3.066-19.167 1.533Zm67.47-134.934c-.767-.767 0 0 0 0l6.133-36.033 7.667 21.466-13.8 14.567Zm6.133-35.267-6.133 34.5 13.8-13.8-7.667-20.7Z" fill="#9DA4A7"/><path d="M291.701 195.967c0-.766.767-1.533 1.534-1.533.766 0 1.533.767 1.533 1.533 0 .767-.767 1.534-1.533 1.534-.767 0-1.534-.767-1.534-1.534ZM153.702 338.566c0-.766.767-1.533 1.534-1.533.766 0 1.533.767 1.533 1.533 0 .767-.767 1.534-1.533 1.534-1.534 0-2.3-.767-1.534-1.534Zm-10.73-53.666c0-.767.767-1.534 1.533-1.534.767 0 1.534.767 1.534 1.534 0 .766-.767 1.533-1.534 1.533-1.533 0-1.533-.767-1.533-1.533Zm-36.804-9.2c0-.767.766-1.533 1.533-1.533.767 0 1.533.766 1.533 1.533 0 .767-.766 1.533-1.533 1.533-1.533 0-2.3-.766-1.533-1.533Zm24.533-18.399c0-.767.767-1.534 1.534-1.534.766 0 1.533.767 1.533 1.534 0 .766-.767 1.533-1.533 1.533-1.534 0-1.534-.767-1.534-1.533Zm-3.062-28.367c0-.766.766-1.533 1.533-1.533.767 0 1.533.767 1.533 1.533 0 .767-.766 1.534-1.533 1.534-.767 0-1.533-.767-1.533-1.534Zm52.132-.767c0-.767.766-1.533 1.533-1.533.767 0 1.533.766 1.533 1.533 0 .767-.766 1.533-1.533 1.533-.767 0-1.533-.766-1.533-1.533Zm-5.368-42.934c0-.767.766-1.533 1.533-1.533.767 0 1.533.766 1.533 1.533 0 .767-.766 1.533-1.533 1.533-1.533 0-1.533 0-1.533-1.533Zm36.034-20.7c0-.766.767-1.533 1.534-1.533.766 0 1.533.767 1.533 1.533 0 .767-.767 1.534-1.533 1.534-.767 0-1.534-.767-1.534-1.534Zm-1.533-13.8c0-.767.766-1.533 1.533-1.533.767 0 1.533.766 1.533 1.533 0 .767-.766 1.533-1.533 1.533-1.533 0-2.3-.766-1.533-1.533Zm19.165-18.399c0-.767.767-1.534 1.534-1.534.766 0 1.533.767 1.533 1.534 0 .766-.767 1.533-1.533 1.533-.767 0-1.534-.767-1.534-1.533Zm-8.43-23.768c0-.766.766-1.533 1.533-1.533.767 0 1.533.767 1.533 1.533 0 .767-.766 1.534-1.533 1.534-1.533 0-1.533-.767-1.533-1.534Zm-19.167-5.366c0-.767.767-1.533 1.533-1.533.767 0 1.534.766 1.534 1.533 0 .767-.767 1.533-1.534 1.533-.766 0-1.533-.766-1.533-1.533ZM167.5 71.768c0-.767.767-1.534 1.533-1.534.767 0 1.534.767 1.534 1.534 0 .766-.767 1.533-1.534 1.533-.766 0-1.533-.767-1.533-1.533ZM422.805 2c0-.766.767-1.533 1.534-1.533.766 0 1.533.767 1.533 1.533 0 .767-.767 1.534-1.533 1.534-1.534 0-1.534-.767-1.534-1.534Zm-69.769 254.533c0-.766.766-1.533 1.533-1.533.767 0 1.533.767 1.533 1.533 0 .767-.766 1.534-1.533 1.534-1.533 0-2.3-.767-1.533-1.534Zm-94.3-32.199c0-.767.767-1.534 1.533-1.534.767 0 1.534.767 1.534 1.534 0 .766-.767 1.533-1.534 1.533-.766 0-1.533-.767-1.533-1.533Z" fill="#352E31"/><path d="M179.771 228.167c0-.767.766-1.533 1.533-1.533.767 0 1.533.766 1.533 1.533 0 .767-.766 1.533-1.533 1.533-.767 0-1.533-.766-1.533-1.533Zm8.43 62.866c0-.766.767-1.533 1.534-1.533.766 0 1.533.767 1.533 1.533 0 .767-.767 1.534-1.533 1.534-.767 0-1.534-.767-1.534-1.534Zm-16.868 29.901c0-.766.767-1.533 1.534-1.533.766 0 1.533.767 1.533 1.533 0 .767-.767 1.534-1.533 1.534-1.534 0-1.534-.767-1.534-1.534ZM142.972 284.9c0-.767.767-1.534 1.533-1.534.767 0 1.534.767 1.534 1.534 0 .766-.767 1.533-1.534 1.533-1.533 0-1.533-.767-1.533-1.533Zm6.896 37.567c0-.766.767-1.533 1.533-1.533.767 0 1.534.767 1.534 1.533 0 .767-.767 1.534-1.534 1.534-.766 0-1.533-.767-1.533-1.534Z" fill="#352E31"/><path d="M188.201 291.033c0-.766.767-1.533 1.534-1.533.766 0 1.533.767 1.533 1.533 0 .767-.767 1.534-1.533 1.534-.767 0-1.534-.767-1.534-1.534Zm40.632-29.899c0-.767.767-1.533 1.534-1.533.766 0 1.533.766 1.533 1.533 0 .767-.767 1.533-1.533 1.533-.767 0-1.534-.766-1.534-1.533Zm-11.5-13.033c0-.767.767-1.533 1.534-1.533.766 0 1.533.766 1.533 1.533 0 .767-.767 1.533-1.533 1.533-.767 0-1.534-.766-1.534-1.533Z" fill="#352E31"/><path d="M188.201 291.033c0-.766.767-1.533 1.534-1.533.766 0 1.533.767 1.533 1.533 0 .767-.767 1.534-1.533 1.534-.767 0-1.534-.767-1.534-1.534Zm9.203-45.232c0-.767.766-1.534 1.533-1.534.767 0 1.533.767 1.533 1.534 0 .766-.766 1.533-1.533 1.533-1.533 0-2.3-.767-1.533-1.533ZM142.972 284.9c0-.767.767-1.534 1.533-1.534.767 0 1.534.767 1.534 1.534 0 .766-.767 1.533-1.534 1.533-1.533 0-1.533-.767-1.533-1.533Z" fill="#352E31"/><path d="M188.201 291.033c0-.766.767-1.533 1.534-1.533.766 0 1.533.767 1.533 1.533 0 .767-.767 1.534-1.533 1.534-.767 0-1.534-.767-1.534-1.534Zm-57.5-33.732c0-.767.767-1.534 1.534-1.534.766 0 1.533.767 1.533 1.534 0 .766-.767 1.533-1.533 1.533-1.534 0-1.534-.767-1.534-1.533Zm12.271 27.599c0-.767.767-1.534 1.533-1.534.767 0 1.534.767 1.534 1.534 0 .766-.767 1.533-1.534 1.533-1.533 0-1.533-.767-1.533-1.533Zm36.799-56.733c0-.767.766-1.533 1.533-1.533.767 0 1.533.766 1.533 1.533 0 .767-.766 1.533-1.533 1.533-.767 0-1.533-.766-1.533-1.533Z" fill="#352E31"/><path d="M130.701 257.301c0-.767.767-1.534 1.534-1.534.766 0 1.533.767 1.533 1.534 0 .766-.767 1.533-1.533 1.533-1.534 0-1.534-.767-1.534-1.533Zm66.703-11.5c0-.767.766-1.534 1.533-1.534.767 0 1.533.767 1.533 1.534 0 .766-.766 1.533-1.533 1.533-1.533 0-2.3-.767-1.533-1.533Zm19.929 2.3c0-.767.767-1.533 1.534-1.533.766 0 1.533.766 1.533 1.533 0 .767-.767 1.533-1.533 1.533-.767 0-1.534-.766-1.534-1.533Zm-37.562-19.934c0-.767.766-1.533 1.533-1.533.767 0 1.533.766 1.533 1.533 0 .767-.766 1.533-1.533 1.533-.767 0-1.533-.766-1.533-1.533Z" fill="#352E31"/><path d="M197.404 245.801c0-.767.766-1.534 1.533-1.534.767 0 1.533.767 1.533 1.534 0 .766-.766 1.533-1.533 1.533-1.533 0-2.3-.767-1.533-1.533Zm13.033-81.268c0-.766.767-1.533 1.534-1.533.766 0 1.533.767 1.533 1.533 0 .767-.767 1.534-1.533 1.534-.767 0-1.534-.767-1.534-1.534Zm-30.666 63.634c0-.767.766-1.533 1.533-1.533.767 0 1.533.766 1.533 1.533 0 .767-.766 1.533-1.533 1.533-.767 0-1.533-.766-1.533-1.533Zm37.562-29.899c0-.767.767-1.534 1.534-1.534.766 0 1.533.767 1.533 1.534 0 .766-.767 1.533-1.533 1.533-1.534 0-1.534-.767-1.534-1.533Zm0 49.833c0-.767.767-1.533 1.534-1.533.766 0 1.533.766 1.533 1.533 0 .767-.767 1.533-1.533 1.533-.767 0-1.534-.766-1.534-1.533Zm41.403-23.767c0-.767.767-1.534 1.533-1.534.767 0 1.534.767 1.534 1.534 0 .766-.767 1.533-1.534 1.533-.766 0-1.533-.767-1.533-1.533ZM236.5 181.4c0-.767.767-1.534 1.533-1.534.767 0 1.534.767 1.534 1.534 0 .766-.767 1.533-1.534 1.533-1.533 0-1.533 0-1.533-1.533Zm-62.097 3.833c0-.767.766-1.533 1.533-1.533.767 0 1.533.766 1.533 1.533 0 .767-.766 1.533-1.533 1.533-1.533 0-1.533 0-1.533-1.533Z" fill="#352E31"/><path d="M217.333 198.268c0-.767.767-1.534 1.534-1.534.766 0 1.533.767 1.533 1.534 0 .766-.767 1.533-1.533 1.533-1.534 0-1.534-.767-1.534-1.533Zm41.403 26.066c0-.767.767-1.534 1.533-1.534.767 0 1.534.767 1.534 1.534 0 .766-.767 1.533-1.534 1.533-.766 0-1.533-.767-1.533-1.533Zm20.701-16.101c0-.767.767-1.533 1.534-1.533.766 0 1.533.766 1.533 1.533 0 .767-.767 1.533-1.533 1.533-.767 0-1.534-.766-1.534-1.533ZM271 183.7c0-.767.767-1.533 1.533-1.533.767 0 1.534.766 1.534 1.533 0 .767-.767 1.533-1.534 1.533-1.533 0-1.533-.766-1.533-1.533Z" fill="#352E31"/><path d="M258.736 224.334c0-.767.767-1.534 1.533-1.534.767 0 1.534.767 1.534 1.534 0 .766-.767 1.533-1.534 1.533-.766 0-1.533-.767-1.533-1.533Zm46-57.5c0-.767.767-1.534 1.533-1.534.767 0 1.534.767 1.534 1.534 0 .766-.767 1.533-1.534 1.533-.766 0-1.533-.767-1.533-1.533Zm-85.097-58.268c0-.766.766-1.533 1.533-1.533.767 0 1.533.767 1.533 1.533 0 .767-.766 1.534-1.533 1.534-1.533 0-1.533-.767-1.533-1.534Zm-10.736-23.765c0-.767.766-1.534 1.533-1.534.767 0 1.533.767 1.533 1.534 0 .766-.766 1.533-1.533 1.533-.767 0-1.533-.767-1.533-1.533ZM229.604 68.7c0-.767.767-1.533 1.533-1.533.767 0 1.534.766 1.534 1.533 0 .767-.767 1.533-1.534 1.533-.766 0-1.533-.766-1.533-1.533Zm-29.132 34.5c0-.767.767-1.533 1.533-1.533.767 0 1.534.766 1.534 1.533 0 .767-.767 1.533-1.534 1.533-.766 0-1.533-.766-1.533-1.533Z" fill="#352E31"/><path d="M208.903 84.8c0-.766.766-1.533 1.533-1.533.767 0 1.533.767 1.533 1.534 0 .766-.766 1.533-1.533 1.533-.767 0-1.533-.767-1.533-1.533ZM167.5 71.769c0-.767.767-1.534 1.533-1.534.767 0 1.534.767 1.534 1.534 0 .766-.767 1.533-1.534 1.533-.766 0-1.533-.767-1.533-1.533Zm62.104-3.068c0-.767.767-1.533 1.533-1.533.767 0 1.534.766 1.534 1.533 0 .767-.767 1.533-1.534 1.533-.766 0-1.533-.766-1.533-1.533Zm11.5-17.634c0-.766.767-1.533 1.533-1.533.767 0 1.534.767 1.534 1.533 0 .767-.767 1.534-1.534 1.534-1.533 0-1.533-.767-1.533-1.534ZM288.633 68.7c0-.767.767-1.533 1.533-1.533.767 0 1.534.766 1.534 1.533 0 .767-.767 1.533-1.534 1.533-1.533 0-2.3-.766-1.533-1.533ZM236.5 181.4c0-.767.767-1.534 1.533-1.534.767 0 1.534.767 1.534 1.534 0 .766-.767 1.533-1.534 1.533-1.533 0-1.533 0-1.533-1.533Zm69-37.566c0-.767.767-1.534 1.533-1.534.767 0 1.534.767 1.534 1.534 0 .766-.767 1.533-1.534 1.533-.766 0-1.533-.767-1.533-1.533Zm-96.596 6.899c0-.767.766-1.533 1.533-1.533.767 0 1.533.766 1.533 1.533 0 .767-.766 1.533-1.533 1.533-1.533 0-2.3-.766-1.533-1.533ZM271 183.7c0-.767.767-1.533 1.533-1.533.767 0 1.534.766 1.534 1.533 0 .767-.767 1.533-1.534 1.533-1.533 0-1.533-.766-1.533-1.533Zm-53.667 14.568c0-.767.767-1.534 1.534-1.534.766 0 1.533.767 1.533 1.534 0 .766-.767 1.533-1.533 1.533-1.534 0-1.534-.767-1.534-1.533Zm10.736-65.934c0-.767.767-1.534 1.534-1.534.766 0 1.533.767 1.533 1.534 0 .766-.767 1.533-1.533 1.533-.767 0-1.534-.767-1.534-1.533Z" fill="#352E31"/><path d="M236.5 181.4c0-.767.767-1.534 1.533-1.534.767 0 1.534.767 1.534 1.534 0 .766-.767 1.533-1.534 1.533-1.533 0-1.533 0-1.533-1.533Zm-26.063-16.867c0-.766.767-1.533 1.534-1.533.766 0 1.533.767 1.533 1.533 0 .767-.767 1.534-1.533 1.534-.767 0-1.534-.767-1.534-1.534Zm78.966-38.333c0-.767.766-1.533 1.533-1.533.767 0 1.533.766 1.533 1.533 0 .767-.766 1.533-1.533 1.533-1.533 0-1.533-.766-1.533-1.533Zm-61.334 6.134c0-.767.767-1.534 1.534-1.534.766 0 1.533.767 1.533 1.534 0 .766-.767 1.533-1.533 1.533-.767 0-1.534-.767-1.534-1.533ZM271 183.7c0-.767.767-1.533 1.533-1.533.767 0 1.534.766 1.534 1.533 0 .767-.767 1.533-1.534 1.533-1.533 0-1.533-.766-1.533-1.533Zm17.633-115c0-.767.767-1.533 1.533-1.533.767 0 1.534.766 1.534 1.533 0 .767-.767 1.533-1.534 1.533-1.533 0-2.3-.766-1.533-1.533Z" fill="#352E31"/><path d="M228.069 132.334c0-.767.767-1.534 1.534-1.534.766 0 1.533.767 1.533 1.534 0 .766-.767 1.533-1.533 1.533-.767 0-1.534-.767-1.534-1.533Zm57.5-93.533c0-.767.767-1.534 1.534-1.534.766 0 1.533.767 1.533 1.534 0 .766-.767 1.533-1.533 1.533-.767 0-1.534-.767-1.534-1.533ZM229.604 68.7c0-.767.767-1.533 1.533-1.533.767 0 1.534.766 1.534 1.533 0 .767-.767 1.533-1.534 1.533-.766 0-1.533-.766-1.533-1.533Zm-9.965 39.866c0-.766.766-1.533 1.533-1.533.767 0 1.533.767 1.533 1.533 0 .767-.766 1.534-1.533 1.534-1.533 0-1.533-.767-1.533-1.534Zm69.764 17.634c0-.767.766-1.533 1.533-1.533.767 0 1.533.766 1.533 1.533 0 .767-.766 1.533-1.533 1.533-1.533 0-1.533-.766-1.533-1.533Z" fill="#352E31"/><path d="M229.604 68.7c0-.767.767-1.533 1.533-1.533.767 0 1.534.766 1.534 1.533 0 .767-.767 1.533-1.534 1.533-.766 0-1.533-.766-1.533-1.533Zm59.029 0c0-.767.767-1.533 1.533-1.533.767 0 1.534.766 1.534 1.533 0 .767-.767 1.533-1.534 1.533-1.533 0-2.3-.766-1.533-1.533Zm-68.994 39.866c0-.766.766-1.533 1.533-1.533.767 0 1.533.767 1.533 1.533 0 .767-.766 1.534-1.533 1.534-1.533 0-1.533-.767-1.533-1.534Zm65.93-69.765c0-.767.767-1.534 1.534-1.534.766 0 1.533.767 1.533 1.534 0 .766-.767 1.533-1.533 1.533-.767 0-1.534-.767-1.534-1.533Z" fill="#352E31"/><path d="M288.633 68.7c0-.767.767-1.533 1.533-1.533.767 0 1.534.766 1.534 1.533 0 .767-.767 1.533-1.534 1.533-1.533 0-2.3-.766-1.533-1.533Zm42.937-30.667c0-.766.767-1.533 1.534-1.533.766 0 1.533.767 1.533 1.533 0 .767-.767 1.534-1.533 1.534-1.534 0-2.3-.767-1.534-1.534Zm6.902 74.367c0-.767.767-1.534 1.533-1.534.767 0 1.534.767 1.534 1.534 0 .766-.767 1.533-1.534 1.533-.766 0-1.533-.767-1.533-1.533Z" fill="#352E31"/><path d="M288.633 68.7c0-.767.767-1.533 1.533-1.533.767 0 1.534.766 1.534 1.533 0 .767-.767 1.533-1.534 1.533-1.533 0-2.3-.766-1.533-1.533Zm.77 57.5c0-.767.766-1.533 1.533-1.533.767 0 1.533.766 1.533 1.533 0 .767-.766 1.533-1.533 1.533-1.533 0-1.533-.766-1.533-1.533Zm42.167-88.167c0-.766.767-1.533 1.534-1.533.766 0 1.533.767 1.533 1.533 0 .767-.767 1.534-1.533 1.534-1.534 0-2.3-.767-1.534-1.534ZM346.903 68.7c0-.767.766-1.533 1.533-1.533.767 0 1.533.766 1.533 1.533 0 .767-.766 1.533-1.533 1.533-.767 0-1.533-.766-1.533-1.533Zm-61.334-29.9c0-.766.767-1.533 1.534-1.533.766 0 1.533.767 1.533 1.534 0 .766-.767 1.533-1.533 1.533-.767 0-1.534-.767-1.534-1.533Z" fill="#352E31"/><path d="M331.57 38.033c0-.766.767-1.533 1.534-1.533.766 0 1.533.767 1.533 1.533 0 .767-.767 1.534-1.533 1.534-1.534 0-2.3-.767-1.534-1.534Zm35.263-21.467c0-.766.767-1.533 1.534-1.533.766 0 1.533.767 1.533 1.533 0 .767-.767 1.534-1.533 1.534-.767 0-1.534-.767-1.534-1.534Zm14.57 46c0-.766.766-1.533 1.533-1.533.767 0 1.533.767 1.533 1.533 0 .767-.766 1.534-1.533 1.534-.767 0-1.533-.767-1.533-1.534Z" fill="#352E31"/><path d="M331.57 38.033c0-.766.767-1.533 1.534-1.533.766 0 1.533.767 1.533 1.533 0 .767-.767 1.534-1.533 1.534-1.534 0-2.3-.767-1.534-1.534Zm49.833-11.5c0-.766.766-1.533 1.533-1.533.767 0 1.533.767 1.533 1.533 0 .767-.766 1.534-1.533 1.534-1.533 0-1.533-.767-1.533-1.534Zm18.402 58.268c0-.767.767-1.534 1.534-1.534.766 0 1.533.767 1.533 1.534 0 .766-.767 1.533-1.533 1.533-.767 0-1.534-.767-1.534-1.533ZM346.903 68.7c0-.767.766-1.533 1.533-1.533.767 0 1.533.766 1.533 1.533 0 .767-.766 1.533-1.533 1.533-.767 0-1.533-.766-1.533-1.533ZM397.5 25.768c0-.767.767-1.534 1.533-1.534.767 0 1.534.767 1.534 1.534 0 .766-.767 1.533-1.534 1.533-.766 0-1.533-.767-1.533-1.533Z" fill="#352E31"/><path d="M381.403 26.533c0-.766.766-1.533 1.533-1.533.767 0 1.533.767 1.533 1.533 0 .767-.766 1.534-1.533 1.534-1.533 0-1.533-.767-1.533-1.534ZM422.805 2c0-.766.767-1.533 1.534-1.533.766 0 1.533.767 1.533 1.533 0 .767-.767 1.534-1.533 1.534-1.534 0-1.534-.767-1.534-1.534ZM397.5 25.768c0-.767.767-1.534 1.533-1.534.767 0 1.534.767 1.534 1.534 0 .766-.767 1.533-1.534 1.533-.766 0-1.533-.767-1.533-1.533Zm16.105 9.965c0-.767.767-1.533 1.533-1.533.767 0 1.534.766 1.534 1.533 0 .767-.767 1.533-1.534 1.533-1.533 0-2.3-.766-1.533-1.533Zm-32.202 26.833c0-.766.766-1.533 1.533-1.533.767 0 1.533.767 1.533 1.533 0 .767-.766 1.534-1.533 1.534-.767 0-1.533-.767-1.533-1.534Z" fill="#352E31"/><path d="M397.5 25.768c0-.767.767-1.534 1.533-1.534.767 0 1.534.767 1.534 1.534 0 .766-.767 1.533-1.534 1.533-.766 0-1.533-.767-1.533-1.533Zm2.305 59.033c0-.767.767-1.534 1.534-1.534.766 0 1.533.767 1.533 1.534 0 .766-.767 1.533-1.533 1.533-.767 0-1.534-.767-1.534-1.533Zm-18.402-22.235c0-.766.766-1.533 1.533-1.533.767 0 1.533.767 1.533 1.533 0 .767-.766 1.534-1.533 1.534-.767 0-1.533-.767-1.533-1.534Zm-34.5 6.134c0-.767.766-1.533 1.533-1.533.767 0 1.533.766 1.533 1.533 0 .767-.766 1.533-1.533 1.533-.767 0-1.533-.766-1.533-1.533Zm-57.5 57.5c0-.767.766-1.533 1.533-1.533.767 0 1.533.766 1.533 1.533 0 .767-.766 1.533-1.533 1.533-1.533 0-1.533-.766-1.533-1.533ZM271 183.7c0-.767.767-1.533 1.533-1.533.767 0 1.534.766 1.534 1.533 0 .767-.767 1.533-1.534 1.533-1.533 0-1.533-.766-1.533-1.533Zm20.701 12.267c0-.766.767-1.533 1.534-1.533.766 0 1.533.767 1.533 1.533 0 .767-.767 1.534-1.533 1.534-.767 0-1.534-.767-1.534-1.534Zm13.035-29.133c0-.767.767-1.534 1.533-1.534.767 0 1.534.767 1.534 1.534 0 .766-.767 1.533-1.534 1.533-.766 0-1.533-.767-1.533-1.533Z" fill="#352E31"/><path d="M271 183.7c0-.767.767-1.533 1.533-1.533.767 0 1.534.766 1.534 1.533 0 .767-.767 1.533-1.534 1.533-1.533 0-1.533-.766-1.533-1.533Zm34.5-39.866c0-.767.767-1.534 1.533-1.534.767 0 1.534.767 1.534 1.534 0 .766-.767 1.533-1.534 1.533-.766 0-1.533-.767-1.533-1.533ZM289.403 126.2c0-.767.766-1.533 1.533-1.533.767 0 1.533.766 1.533 1.533 0 .767-.766 1.533-1.533 1.533-1.533 0-1.533-.766-1.533-1.533Zm49.069-13.8c0-.767.767-1.534 1.533-1.534.767 0 1.534.767 1.534 1.534 0 .766-.767 1.533-1.534 1.533-.766 0-1.533-.767-1.533-1.533Zm8.431-43.7c0-.767.766-1.533 1.533-1.533.767 0 1.533.766 1.533 1.533 0 .767-.766 1.533-1.533 1.533-.767 0-1.533-.766-1.533-1.533ZM365.3 99.367c0-.767.766-1.534 1.533-1.534.767 0 1.533.767 1.533 1.534 0 .766-.766 1.533-1.533 1.533-1.533 0-2.3-.767-1.533-1.533ZM399.805 84.8c0-.767.767-1.534 1.534-1.534.766 0 1.533.767 1.533 1.534 0 .766-.767 1.533-1.533 1.533-.767 0-1.534-.767-1.534-1.533Zm-16.868 33.732c0-.766.767-1.533 1.534-1.533.766 0 1.533.767 1.533 1.533 0 .767-.767 1.534-1.533 1.534-.767 0-1.534-.767-1.534-1.534Zm-1.534-55.967c0-.766.766-1.533 1.533-1.533.767 0 1.533.767 1.533 1.533 0 .767-.766 1.534-1.533 1.534-.767 0-1.533-.767-1.533-1.534Z" fill="#352E31"/><path d="M365.3 99.367c0-.767.766-1.534 1.533-1.534.767 0 1.533.767 1.533 1.534 0 .766-.766 1.533-1.533 1.533-1.533 0-2.3-.767-1.533-1.533ZM338.472 112.4c0-.767.767-1.534 1.533-1.534.767 0 1.534.767 1.534 1.534 0 .766-.767 1.533-1.534 1.533-.766 0-1.533-.767-1.533-1.533Zm32.195 18.401c0-.767.766-1.534 1.533-1.534.767 0 1.533.767 1.533 1.534 0 .766-.766 1.533-1.533 1.533-.767 0-1.533-.767-1.533-1.533Z" fill="#352E31"/><path d="M365.3 99.367c0-.767.766-1.534 1.533-1.534.767 0 1.533.767 1.533 1.534 0 .766-.766 1.533-1.533 1.533-1.533 0-2.3-.767-1.533-1.533Zm17.637 19.166c0-.766.767-1.533 1.534-1.533.766 0 1.533.767 1.533 1.533 0 .767-.767 1.534-1.533 1.534-.767 0-1.534-.767-1.534-1.534Zm-12.27 12.268c0-.767.766-1.534 1.533-1.534.767 0 1.533.767 1.533 1.534 0 .766-.766 1.533-1.533 1.533-.767 0-1.533-.767-1.533-1.533Zm-38.334 10.732c0-.766.767-1.533 1.534-1.533.766 0 1.533.767 1.533 1.533 0 .767-.767 1.534-1.533 1.534-.767 0-1.534-.767-1.534-1.534Zm6.139-29.133c0-.767.767-1.534 1.533-1.534.767 0 1.534.767 1.534 1.534 0 .766-.767 1.533-1.534 1.533-.766 0-1.533-.767-1.533-1.533ZM305.5 143.834c0-.767.767-1.534 1.533-1.534.767 0 1.534.767 1.534 1.534 0 .766-.767 1.533-1.534 1.533-.766 0-1.533-.767-1.533-1.533Z" fill="#352E31"/><path d="M332.333 141.533c0-.766.767-1.533 1.534-1.533.766 0 1.533.767 1.533 1.533 0 .767-.767 1.534-1.533 1.534-.767 0-1.534-.767-1.534-1.534Zm-27.597 25.301c0-.767.767-1.534 1.533-1.534.767 0 1.534.767 1.534 1.534 0 .766-.767 1.533-1.534 1.533-.766 0-1.533-.767-1.533-1.533Zm.764-23c0-.767.767-1.534 1.533-1.534.767 0 1.534.767 1.534 1.534 0 .766-.767 1.533-1.534 1.533-.766 0-1.533-.767-1.533-1.533Zm46.771 37.566c0-.767.766-1.534 1.533-1.534.767 0 1.533.767 1.533 1.534 0 .766-.766 1.533-1.533 1.533-1.533 0-1.533-.767-1.533-1.533Zm-38.333 36.034c0-.766.767-1.533 1.534-1.533.766 0 1.533.767 1.533 1.533 0 .767-.767 1.534-1.533 1.534-1.534 0-2.3-.767-1.534-1.534Z" fill="#352E31"/><path d="M304.736 166.834c0-.767.767-1.534 1.533-1.534.767 0 1.534.767 1.534 1.534 0 .766-.767 1.533-1.534 1.533-.766 0-1.533-.767-1.533-1.533Zm21.465 14.566c0-.767.767-1.534 1.534-1.534.766 0 1.533.767 1.533 1.534 0 .766-.767 1.533-1.533 1.533-.767 0-1.534-.767-1.534-1.533Zm6.132-39.867c0-.766.767-1.533 1.534-1.533.766 0 1.533.767 1.533 1.533 0 .767-.767 1.534-1.533 1.534-.767 0-1.534-.767-1.534-1.534Zm23.771 5.367c0-.767.767-1.534 1.533-1.534.767 0 1.534.767 1.534 1.534 0 .766-.767 1.533-1.534 1.533-1.533 0-1.533-.767-1.533-1.533Zm14.563-16.099c0-.767.766-1.534 1.533-1.534.767 0 1.533.767 1.533 1.534 0 .766-.766 1.533-1.533 1.533-.767 0-1.533-.767-1.533-1.533Zm10.736 22.232c0-.766.766-1.533 1.533-1.533.767 0 1.533.767 1.533 1.533 0 .767-.766 1.534-1.533 1.534-1.533 0-1.533-.767-1.533-1.534Z" fill="#352E31"/><path d="M356.104 146.9c0-.767.767-1.534 1.533-1.534.767 0 1.534.767 1.534 1.534 0 .766-.767 1.533-1.534 1.533-1.533 0-1.533-.767-1.533-1.533Zm10.729 58.267c0-.767.767-1.533 1.534-1.533.766 0 1.533.766 1.533 1.533 0 .767-.767 1.533-1.533 1.533-.767 0-1.534-.766-1.534-1.533ZM352.271 181.4c0-.767.766-1.534 1.533-1.534.767 0 1.533.767 1.533 1.534 0 .766-.766 1.533-1.533 1.533-1.533 0-1.533-.767-1.533-1.533Zm-5.368 30.666c0-.766.766-1.533 1.533-1.533.767 0 1.533.767 1.533 1.533 0 .767-.766 1.534-1.533 1.534-.767 0-1.533-.767-1.533-1.534Zm34.5-59.033c0-.766.766-1.533 1.533-1.533.767 0 1.533.767 1.533 1.533 0 .767-.766 1.534-1.533 1.534-1.533 0-1.533-.767-1.533-1.534Z" fill="#352E31"/><path d="M352.271 181.4c0-.767.766-1.534 1.533-1.534.767 0 1.533.767 1.533 1.534 0 .766-.766 1.533-1.533 1.533-1.533 0-1.533-.767-1.533-1.533Zm3.833-34.5c0-.767.767-1.534 1.533-1.534.767 0 1.534.767 1.534 1.534 0 .766-.767 1.533-1.534 1.533-1.533 0-1.533-.767-1.533-1.533Zm-29.903 34.5c0-.767.767-1.534 1.534-1.534.766 0 1.533.767 1.533 1.534 0 .766-.767 1.533-1.533 1.533-.767 0-1.534-.767-1.534-1.533Zm40.632 23.767c0-.767.767-1.533 1.534-1.533.766 0 1.533.766 1.533 1.533 0 .767-.767 1.533-1.533 1.533-.767 0-1.534-.766-1.534-1.533Zm-19.93 6.899c0-.766.766-1.533 1.533-1.533.767 0 1.533.767 1.533 1.533 0 .767-.766 1.534-1.533 1.534-.767 0-1.533-.767-1.533-1.534Z" fill="#352E31"/><path d="M326.201 181.4c0-.767.767-1.534 1.534-1.534.766 0 1.533.767 1.533 1.534 0 .766-.767 1.533-1.533 1.533-.767 0-1.534-.767-1.534-1.533Zm4.604 32.967c0-.767.767-1.534 1.534-1.534.766 0 1.533.767 1.533 1.534 0 .766-.767 1.533-1.533 1.533-.767 0-1.534-.767-1.534-1.533Zm22.231 42.166c0-.766.766-1.533 1.533-1.533.767 0 1.533.767 1.533 1.533 0 .767-.766 1.534-1.533 1.534-1.533 0-2.3-.767-1.533-1.534Zm-6.133-44.467c0-.766.766-1.533 1.533-1.533.767 0 1.533.767 1.533 1.533 0 .767-.766 1.534-1.533 1.534-.767 0-1.533-.767-1.533-1.534Zm-32.965 5.368c0-.766.767-1.533 1.534-1.533.766 0 1.533.767 1.533 1.533 0 .767-.767 1.534-1.533 1.534-1.534 0-2.3-.767-1.534-1.534Z" fill="#352E31"/><path d="M326.201 181.4c0-.767.767-1.534 1.534-1.534.766 0 1.533.767 1.533 1.534 0 .766-.767 1.533-1.533 1.533-.767 0-1.534-.767-1.534-1.533Zm-34.5 14.567c0-.766.767-1.533 1.534-1.533.766 0 1.533.767 1.533 1.533 0 .767-.767 1.534-1.533 1.534-.767 0-1.534-.767-1.534-1.534Zm-91.229-75.901c0-.766.767-1.533 1.533-1.533.767 0 1.534.767 1.534 1.533 0 .767-.767 1.534-1.534 1.534-1.533 0-1.533-.767-1.533-1.534Zm4.597-2.298c0-.767.767-1.534 1.534-1.534.766 0 1.533.767 1.533 1.534 0 .766-.767 1.533-1.533 1.533-.767 0-1.534-.767-1.534-1.533Zm-32.201-11.5c0-.767.767-1.534 1.533-1.534.767 0 1.534.767 1.534 1.534 0 .766-.767 1.533-1.534 1.533-1.533 0-1.533-.767-1.533-1.533Zm29.903 18.399c0-.767.766-1.533 1.533-1.533.767 0 1.533.766 1.533 1.533 0 .767-.766 1.533-1.533 1.533-1.533 0-1.533-.766-1.533-1.533Zm4.597 17.634c0-.767.767-1.534 1.533-1.534.767 0 1.534.767 1.534 1.534 0 .766-.767 1.533-1.534 1.533-.766 0-1.533-.767-1.533-1.533Zm-13.034-17.634c0-.767.767-1.533 1.534-1.533.766 0 1.533.766 1.533 1.533 0 .767-.767 1.533-1.533 1.533-1.534 0-2.3-.766-1.534-1.533Zm-39.097 30.667c0-.767.767-1.534 1.533-1.534.767 0 1.534.767 1.534 1.534 0 .766-.767 1.533-1.534 1.533-1.533 0-2.3-.767-1.533-1.533Zm38.332 6.899c0-.767.767-1.533 1.534-1.533.766 0 1.533.766 1.533 1.533 0 .767-.767 1.533-1.533 1.533-1.534 0-1.534-.766-1.534-1.533Zm-8.43-14.566c0-.767.766-1.533 1.533-1.533.767 0 1.533.766 1.533 1.533 0 .767-.766 1.533-1.533 1.533-1.533 0-1.533-.766-1.533-1.533Zm-30.667 37.566c0-.767.767-1.533 1.533-1.533.767 0 1.534.766 1.534 1.533 0 .767-.767 1.533-1.534 1.533-.766 0-1.533-.766-1.533-1.533Zm2.299-9.2c0-.766.766-1.533 1.533-1.533.767 0 1.533.767 1.533 1.533 0 .767-.766 1.534-1.533 1.534-.767 0-1.533-.767-1.533-1.534Zm21.465-1.533c0-.766.767-1.533 1.533-1.533.767 0 1.534.767 1.534 1.533 0 .767-.767 1.534-1.534 1.534-1.533 0-1.533-.767-1.533-1.534ZM121.5 212.066c0-.766.767-1.533 1.533-1.533.767 0 1.534.767 1.534 1.533 0 .767-.767 1.534-1.534 1.534-1.533 0-1.533-.767-1.533-1.534Zm40.639-6.132c0-.766.766-1.533 1.533-1.533.767 0 1.533.767 1.533 1.533 0 .767-.766 1.534-1.533 1.534-.767 0-1.533-.767-1.533-1.534Zm3.833-16.1c0-.767.767-1.534 1.533-1.534.767 0 1.534.767 1.534 1.534 0 .766-.767 1.533-1.534 1.533-.766 0-1.533-.767-1.533-1.533Zm-65.937 56.732c0-.766.766-1.533 1.533-1.533.767 0 1.533.767 1.533 1.533 0 .767-.766 1.534-1.533 1.534-.767 0-1.533-.767-1.533-1.534Zm16.098 4.601c0-.767.767-1.533 1.533-1.533.767 0 1.534.766 1.534 1.533 0 .767-.767 1.533-1.534 1.533-1.533 0-2.3-.766-1.533-1.533Zm-10.73-34.5c0-.767.766-1.533 1.533-1.533.767 0 1.533.766 1.533 1.533 0 .767-.766 1.533-1.533 1.533-.767 0-1.533-.766-1.533-1.533Zm-42.931 54.434c0-.767.767-1.533 1.533-1.533.767 0 1.534.766 1.534 1.533 0 .767-.767 1.533-1.534 1.533-.766 0-1.533-.766-1.533-1.533Zm20.695 2.299c0-.767.766-1.534 1.533-1.534.767 0 1.533.767 1.533 1.534 0 .766-.766 1.533-1.533 1.533-.767 0-1.533-.767-1.533-1.533Zm25.305-16.099c0-.767.767-1.534 1.533-1.534.767 0 1.534.767 1.534 1.534 0 .766-.767 1.533-1.534 1.533-.766 0-1.533-.767-1.533-1.533ZM49.437 255c0-.766.767-1.533 1.534-1.533.766 0 1.533.767 1.533 1.533 0 .767-.767 1.534-1.533 1.534-.767 0-1.534-.767-1.534-1.534Zm22.23-12.267c0-.767.766-1.533 1.533-1.533.767 0 1.533.766 1.533 1.533 0 .767-.766 1.533-1.533 1.533-1.533 0-1.533-.766-1.533-1.533ZM66.305 232c0-.766.767-1.533 1.534-1.533.766 0 1.533.767 1.533 1.533 0 .767-.767 1.534-1.533 1.534-.767 0-1.534-.767-1.534-1.534ZM47.14 301.768c0-.767.766-1.534 1.533-1.534.767 0 1.533.767 1.533 1.534 0 .766-.766 1.533-1.533 1.533-.767 0-1.533-.767-1.533-1.533Zm19.166 1.533c0-.767.767-1.534 1.534-1.534.766 0 1.533.767 1.533 1.534 0 .766-.767 1.533-1.533 1.533-.767 0-1.534-.767-1.534-1.533ZM41 291.801c0-.767.767-1.534 1.533-1.534.767 0 1.534.767 1.534 1.534 0 .766-.767 1.533-1.534 1.533-1.533 0-1.533-.767-1.533-1.533Zm72.069 16.099c0-.767.767-1.534 1.534-1.534.766 0 1.533.767 1.533 1.534 0 .766-.767 1.533-1.533 1.533-.767 0-1.534-.767-1.534-1.533ZM133 294.101c0-.767.767-1.533 1.533-1.533.767 0 1.534.766 1.534 1.533 0 .767-.767 1.533-1.534 1.533-.766 0-1.533-.766-1.533-1.533Zm-51.361-.767c0-.767.766-1.534 1.533-1.534.767 0 1.533.767 1.533 1.534 0 .766-.766 1.533-1.533 1.533-.767 0-1.533-.767-1.533-1.533ZM3.437 340.1c0-.767.767-.767 1.534-.767.766 0 1.533.767 1.533 1.534 0 .766-.767 1.533-1.533 1.533-.767-.767-1.534-.767-1.534-2.3Zm18.396-7.667c0-.766.767-.766 1.534-.766.766 0 1.533.766 1.533 1.533 0 .767-.767 1.533-1.533 1.533-.767-.766-1.534-1.533-1.534-2.3Zm-21.464 2.3c0-.767.767-1.533 1.533-1.533.767 0 1.534.766 1.534 1.533 0 .767-.767 1.533-1.534 1.533-1.533 0-2.3-.766-1.533-1.533Zm76.666-2.299c0-.766.766-1.533 1.533-1.533.767 0 1.533.767 1.533 1.533 0 .767-.766 1.534-1.533 1.534-.767 0-1.533-.767-1.533-1.534Zm7.666-3.067c0-.767.767-1.534 1.534-1.534.766 0 1.533.767 1.533 1.534 0 .766-.767 1.533-1.533 1.533-.767 0-1.534-.767-1.534-1.533ZM63.236 330.9c0-.767.767-1.534 1.533-1.534.767 0 1.534.767 1.534 1.534 0 .766-.767 1.533-1.534 1.533-.766 0-1.533-.767-1.533-1.533Zm75.132-170.966c0-.766.767-1.533 1.533-1.533.767 0 1.534.767 1.534 1.533 0 .767-.767 1.534-1.534 1.534-.766 0-1.533 0-1.533-1.534Zm7.667 22.233c0-.767.766-1.533 1.533-1.533.767 0 1.533.766 1.533 1.533 0 .767-.766 1.533-1.533 1.533-.767 0-1.533-.766-1.533-1.533Zm-13.799 13.8c0-.766.767-1.533 1.533-1.533.767 0 1.534.767 1.534 1.533 0 .767-.767 1.534-1.534 1.534-1.533 0-1.533-.767-1.533-1.534Z" fill="#352E31"/><g fill="#F7BB33" opacity=".5"><path d="m353.804 256.533-5.367-44.467 34.5-59.033-29.133 103.5Zm-.001.001-60.567-60.567 39.1 19.167 21.467 41.4Zm-180.935 64.4 46-72.834 74.367-52.133-120.367 124.967Zm36.799-170.2 19.933-17.633-17.633 32.2-2.3-14.567Zm-86.632 61.333 43.7-22.234-3.067 16.1-40.633 6.134ZM64 271.099l46-13.033-25.3 15.333-20.7-2.3ZM42.535 291.8l25.3 11.5-19.167-1.533-6.133-9.967Zm147.201-.767-38.333 31.433 3.833 16.1 34.5-47.533ZM169.035 71.767l52.133 36.8-19.167-5.366-32.966-31.434Z" opacity=".5"/><path d="m221.167 108.566 19.166 13.033-10.733 11.5-8.433-24.533Zm132.634 147.968-39.1-38.333 53.667-12.267-14.567 50.6Zm29.136-103.501 1.534-34.5L424.337 2l-41.4 151.033Z" opacity=".5"/></g></svg>